<svg width="70" height="71" viewBox="0 0 70 71" fill="none" xmlns="http://www.w3.org/2000/svg">
<circle cx="35" cy="35.6736" r="33.5" fill="white" stroke="#2549D3" stroke-width="3"/>
<path d="M25.512 48V44.976C25.512 43.224 25.8 41.772 26.376 40.62C26.952 39.444 27.78 38.484 28.86 37.74C29.964 36.972 31.308 36.348 32.892 35.868L35.304 35.112C36.192 34.824 36.936 34.476 37.536 34.068C38.136 33.636 38.592 33.12 38.904 32.52C39.24 31.92 39.408 31.236 39.408 30.468V30.324C39.408 29.124 39 28.176 38.184 27.48C37.368 26.76 36.252 26.4 34.836 26.4C33.444 26.4 32.316 26.784 31.452 27.552C30.612 28.296 30.192 29.376 30.192 30.792V31.44H25.584V30.864C25.584 29.04 25.992 27.492 26.808 26.22C27.624 24.948 28.728 23.976 30.12 23.304C31.536 22.632 33.108 22.296 34.836 22.296C36.564 22.296 38.124 22.632 39.516 23.304C40.908 23.952 42 24.876 42.792 26.076C43.608 27.252 44.016 28.644 44.016 30.252V30.612C44.016 32.22 43.68 33.588 43.008 34.716C42.36 35.82 41.472 36.732 40.344 37.452C39.216 38.148 37.932 38.724 36.492 39.18L34.188 39.9C33.156 40.212 32.352 40.56 31.776 40.944C31.2 41.304 30.792 41.712 30.552 42.168C30.336 42.6 30.228 43.128 30.228 43.752V43.896H43.8V48H25.512Z" fill="#2549D3"/>
</svg>
