<svg width="70" height="71" viewBox="0 0 70 71" fill="none" xmlns="http://www.w3.org/2000/svg">
<circle cx="35" cy="35.6736" r="33.5" fill="white" stroke="#2549D3" stroke-width="3"/>
<path d="M34.944 48.504C33.048 48.504 31.368 48.168 29.904 47.496C28.44 46.824 27.288 45.864 26.448 44.616C25.632 43.344 25.224 41.844 25.224 40.116V39.468H29.832V39.972C29.832 41.316 30.3 42.396 31.236 43.212C32.172 44.004 33.408 44.4 34.944 44.4C36.504 44.4 37.704 44.028 38.544 43.284C39.408 42.54 39.84 41.604 39.84 40.476V40.116C39.84 39.348 39.648 38.724 39.264 38.244C38.88 37.764 38.364 37.416 37.716 37.2C37.068 36.96 36.336 36.84 35.52 36.84H30.48V31.8L38.616 27.48V26.904H25.872V22.8H43.728V28.92L36.132 32.952V33.528H37.464C38.592 33.528 39.684 33.756 40.74 34.212C41.82 34.668 42.708 35.376 43.404 36.336C44.1 37.272 44.448 38.496 44.448 40.008V40.44C44.448 42.072 44.052 43.5 43.26 44.724C42.468 45.924 41.352 46.86 39.912 47.532C38.496 48.18 36.84 48.504 34.944 48.504Z" fill="#2549D3"/>
</svg>
