<svg width="140" height="123" viewBox="0 0 140 123" fill="none" xmlns="http://www.w3.org/2000/svg">
<path d="M56.8333 34.875V54.25C56.8333 54.9351 56.5612 55.5922 56.0767 56.0767C55.5922 56.5611 54.9351 56.8333 54.25 56.8333H51.6667C50.9815 56.8333 50.3244 56.5611 49.84 56.0767C49.3555 55.5922 49.0833 54.9351 49.0833 54.25V51.6666H12.9167V54.25C12.9167 54.9351 12.6445 55.5922 12.16 56.0767C11.6756 56.5611 11.0185 56.8333 10.3333 56.8333H7.75C7.06486 56.8333 6.40778 56.5611 5.92331 56.0767C5.43884 55.5922 5.16667 54.9351 5.16667 54.25V34.875L1.95558 34.0741C1.39695 33.9342 0.901089 33.6116 0.546776 33.1576C0.192464 32.7036 1.51395e-05 32.1442 0 31.5683L0 29.7083C0 29.3657 0.136086 29.0372 0.37832 28.795C0.620555 28.5527 0.949095 28.4166 1.29167 28.4166H6.13542L11.6586 13.6865C12.0278 12.7014 12.689 11.8526 13.5536 11.2534C14.4182 10.6542 15.4452 10.3332 16.4972 10.3333H45.5028C46.5548 10.3332 47.5818 10.6542 48.4464 11.2534C49.311 11.8526 49.9722 12.7014 50.3414 13.6865L55.8646 28.4166H60.7083C61.0509 28.4166 61.3794 28.5527 61.6217 28.795C61.8639 29.0372 62 29.3657 62 29.7083V31.5683C62 32.1442 61.8075 32.7036 61.4532 33.1576C61.0989 33.6116 60.6031 33.9342 60.0444 34.0741L56.8333 34.875ZM10.3333 38.75V43.9166C10.3333 44.6018 10.6055 45.2589 11.09 45.7433C11.5744 46.2278 12.2315 46.5 12.9167 46.5H21.2996C21.5226 46.4996 21.7418 46.4415 21.9357 46.3313C22.1296 46.2211 22.2917 46.0625 22.4062 45.8711C22.5206 45.6796 22.5836 45.4618 22.5888 45.2388C22.5941 45.0158 22.5415 44.7953 22.4363 44.5986C20.3567 40.6978 16.3215 38.75 10.3333 38.75ZM51.6667 38.75C45.6811 38.75 41.6459 40.7004 39.5612 44.5986C39.4558 44.7955 39.4032 45.0163 39.4086 45.2395C39.414 45.4627 39.4771 45.6807 39.5919 45.8722C39.7067 46.0637 39.8691 46.2222 40.0634 46.3323C40.2577 46.4423 40.4771 46.5001 40.7004 46.5H49.0833C49.7685 46.5 50.4256 46.2278 50.91 45.7433C51.3945 45.2589 51.6667 44.6018 51.6667 43.9166V38.75ZM15.5 15.5L11.4674 27.6003C11.3381 27.9885 11.3029 28.4018 11.3646 28.8062C11.4263 29.2106 11.5831 29.5947 11.8223 29.9266C12.0614 30.2586 12.376 30.529 12.74 30.7156C13.1041 30.9022 13.5073 30.9997 13.9164 31H48.0836C48.4927 30.9997 48.8959 30.9022 49.26 30.7156C49.624 30.529 49.9386 30.2586 50.1777 29.9266C50.4169 29.5947 50.5737 29.2106 50.6354 28.8062C50.6971 28.4018 50.6619 27.9885 50.5326 27.6003L46.5 15.5H15.5Z" fill="#2549D3"/>
<path d="M134.833 34.875V54.25C134.833 54.9351 134.561 55.5922 134.077 56.0767C133.592 56.5611 132.935 56.8333 132.25 56.8333H129.667C128.982 56.8333 128.324 56.5611 127.84 56.0767C127.356 55.5922 127.083 54.9351 127.083 54.25V51.6666H90.9167V54.25C90.9167 54.9351 90.6445 55.5922 90.16 56.0767C89.6756 56.5611 89.0185 56.8333 88.3333 56.8333H85.75C85.0649 56.8333 84.4078 56.5611 83.9233 56.0767C83.4388 55.5922 83.1667 54.9351 83.1667 54.25V34.875L79.9556 34.0741C79.3969 33.9342 78.9011 33.6116 78.5468 33.1576C78.1925 32.7036 78 32.1442 78 31.5683V29.7083C78 29.3657 78.1361 29.0372 78.3783 28.795C78.6206 28.5527 78.9491 28.4166 79.2917 28.4166H84.1354L89.6586 13.6865C90.0278 12.7014 90.689 11.8526 91.5536 11.2534C92.4182 10.6542 93.4452 10.3332 94.4972 10.3333H123.503C124.555 10.3332 125.582 10.6542 126.446 11.2534C127.311 11.8526 127.972 12.7014 128.341 13.6865L133.865 28.4166H138.708C139.051 28.4166 139.379 28.5527 139.622 28.795C139.864 29.0372 140 29.3657 140 29.7083V31.5683C140 32.1442 139.808 32.7036 139.453 33.1576C139.099 33.6116 138.603 33.9342 138.044 34.0741L134.833 34.875ZM88.3333 38.75V43.9166C88.3333 44.6018 88.6055 45.2589 89.09 45.7433C89.5744 46.2278 90.2315 46.5 90.9167 46.5H99.2996C99.5226 46.4996 99.7418 46.4415 99.9357 46.3313C100.13 46.2211 100.292 46.0625 100.406 45.8711C100.521 45.6796 100.584 45.4618 100.589 45.2388C100.594 45.0158 100.542 44.7953 100.436 44.5986C98.3567 40.6978 94.3215 38.75 88.3333 38.75ZM129.667 38.75C123.681 38.75 119.646 40.7004 117.561 44.5986C117.456 44.7955 117.403 45.0163 117.409 45.2395C117.414 45.4627 117.477 45.6807 117.592 45.8722C117.707 46.0637 117.869 46.2222 118.063 46.3323C118.258 46.4423 118.477 46.5001 118.7 46.5H127.083C127.768 46.5 128.426 46.2278 128.91 45.7433C129.394 45.2589 129.667 44.6018 129.667 43.9166V38.75ZM93.5 15.5L89.4674 27.6003C89.3381 27.9885 89.3029 28.4018 89.3646 28.8062C89.4263 29.2106 89.5831 29.5947 89.8223 29.9266C90.0614 30.2586 90.376 30.529 90.74 30.7156C91.1041 30.9022 91.5073 30.9997 91.9164 31H126.084C126.493 30.9997 126.896 30.9022 127.26 30.7156C127.624 30.529 127.939 30.2586 128.178 29.9266C128.417 29.5947 128.574 29.2106 128.635 28.8062C128.697 28.4018 128.662 27.9885 128.533 27.6003L124.5 15.5H93.5Z" fill="#2549D3"/>
<path d="M56.8333 95.875V115.25C56.8333 115.935 56.5612 116.592 56.0767 117.077C55.5922 117.561 54.9351 117.833 54.25 117.833H51.6667C50.9815 117.833 50.3244 117.561 49.84 117.077C49.3555 116.592 49.0833 115.935 49.0833 115.25V112.667H12.9167V115.25C12.9167 115.935 12.6445 116.592 12.16 117.077C11.6756 117.561 11.0185 117.833 10.3333 117.833H7.75C7.06486 117.833 6.40778 117.561 5.92331 117.077C5.43884 116.592 5.16667 115.935 5.16667 115.25V95.875L1.95558 95.0741C1.39695 94.9342 0.901089 94.6116 0.546776 94.1576C0.192464 93.7036 1.51395e-05 93.1442 0 92.5683L0 90.7083C0 90.3657 0.136086 90.0372 0.37832 89.795C0.620555 89.5527 0.949095 89.4166 1.29167 89.4166H6.13542L11.6586 74.6865C12.0278 73.7014 12.689 72.8526 13.5536 72.2534C14.4182 71.6542 15.4452 71.3332 16.4972 71.3333H45.5028C46.5548 71.3332 47.5818 71.6542 48.4464 72.2534C49.311 72.8526 49.9722 73.7014 50.3414 74.6865L55.8646 89.4166H60.7083C61.0509 89.4166 61.3794 89.5527 61.6217 89.795C61.8639 90.0372 62 90.3657 62 90.7083V92.5683C62 93.1442 61.8075 93.7036 61.4532 94.1576C61.0989 94.6116 60.6031 94.9342 60.0444 95.0741L56.8333 95.875ZM10.3333 99.75V104.917C10.3333 105.602 10.6055 106.259 11.09 106.743C11.5744 107.228 12.2315 107.5 12.9167 107.5H21.2996C21.5226 107.5 21.7418 107.442 21.9357 107.331C22.1296 107.221 22.2917 107.063 22.4062 106.871C22.5206 106.68 22.5836 106.462 22.5888 106.239C22.5941 106.016 22.5415 105.795 22.4363 105.599C20.3567 101.698 16.3215 99.75 10.3333 99.75ZM51.6667 99.75C45.6811 99.75 41.6459 101.7 39.5612 105.599C39.4558 105.795 39.4032 106.016 39.4086 106.239C39.414 106.463 39.4771 106.681 39.5919 106.872C39.7067 107.064 39.8691 107.222 40.0634 107.332C40.2577 107.442 40.4771 107.5 40.7004 107.5H49.0833C49.7685 107.5 50.4256 107.228 50.91 106.743C51.3945 106.259 51.6667 105.602 51.6667 104.917V99.75ZM15.5 76.5L11.4674 88.6003C11.3381 88.9885 11.3029 89.4018 11.3646 89.8062C11.4263 90.2106 11.5831 90.5947 11.8223 90.9266C12.0614 91.2586 12.376 91.529 12.74 91.7156C13.1041 91.9022 13.5073 91.9997 13.9164 92H48.0836C48.4927 91.9997 48.8959 91.9022 49.26 91.7156C49.624 91.529 49.9386 91.2586 50.1777 90.9266C50.4169 90.5947 50.5737 90.2106 50.6354 89.8062C50.6971 89.4018 50.6619 88.9885 50.5326 88.6003L46.5 76.5H15.5Z" fill="#2549D3"/>
<path d="M134.833 95.875V115.25C134.833 115.935 134.561 116.592 134.077 117.077C133.592 117.561 132.935 117.833 132.25 117.833H129.667C128.982 117.833 128.324 117.561 127.84 117.077C127.356 116.592 127.083 115.935 127.083 115.25V112.667H90.9167V115.25C90.9167 115.935 90.6445 116.592 90.16 117.077C89.6756 117.561 89.0185 117.833 88.3333 117.833H85.75C85.0649 117.833 84.4078 117.561 83.9233 117.077C83.4388 116.592 83.1667 115.935 83.1667 115.25V95.875L79.9556 95.0741C79.3969 94.9342 78.9011 94.6116 78.5468 94.1576C78.1925 93.7036 78 93.1442 78 92.5683V90.7083C78 90.3657 78.1361 90.0372 78.3783 89.795C78.6206 89.5527 78.9491 89.4166 79.2917 89.4166H84.1354L89.6586 74.6865C90.0278 73.7014 90.689 72.8526 91.5536 72.2534C92.4182 71.6542 93.4452 71.3332 94.4972 71.3333H123.503C124.555 71.3332 125.582 71.6542 126.446 72.2534C127.311 72.8526 127.972 73.7014 128.341 74.6865L133.865 89.4166H138.708C139.051 89.4166 139.379 89.5527 139.622 89.795C139.864 90.0372 140 90.3657 140 90.7083V92.5683C140 93.1442 139.808 93.7036 139.453 94.1576C139.099 94.6116 138.603 94.9342 138.044 95.0741L134.833 95.875ZM88.3333 99.75V104.917C88.3333 105.602 88.6055 106.259 89.09 106.743C89.5744 107.228 90.2315 107.5 90.9167 107.5H99.2996C99.5226 107.5 99.7418 107.442 99.9357 107.331C100.13 107.221 100.292 107.063 100.406 106.871C100.521 106.68 100.584 106.462 100.589 106.239C100.594 106.016 100.542 105.795 100.436 105.599C98.3567 101.698 94.3215 99.75 88.3333 99.75ZM129.667 99.75C123.681 99.75 119.646 101.7 117.561 105.599C117.456 105.795 117.403 106.016 117.409 106.239C117.414 106.463 117.477 106.681 117.592 106.872C117.707 107.064 117.869 107.222 118.063 107.332C118.258 107.442 118.477 107.5 118.7 107.5H127.083C127.768 107.5 128.426 107.228 128.91 106.743C129.394 106.259 129.667 105.602 129.667 104.917V99.75ZM93.5 76.5L89.4674 88.6003C89.3381 88.9885 89.3029 89.4018 89.3646 89.8062C89.4263 90.2106 89.5831 90.5947 89.8223 90.9266C90.0614 91.2586 90.376 91.529 90.74 91.7156C91.1041 91.9022 91.5073 91.9997 91.9164 92H126.084C126.493 91.9997 126.896 91.9022 127.26 91.7156C127.624 91.529 127.939 91.2586 128.178 90.9266C128.417 90.5947 128.574 90.2106 128.635 89.8062C128.697 89.4018 128.662 88.9885 128.533 88.6003L124.5 76.5H93.5Z" fill="#2549D3"/>
</svg>
