<svg width="112" height="125" viewBox="0 0 112 125" fill="none" xmlns="http://www.w3.org/2000/svg">
<path d="M109.289 30.512C77.5609 30.0738 57.1333 1.59324 56.916 1.37416C56.264 0.497838 54.9601 0.497838 54.3082 1.37416C54.0909 1.59324 33.6633 30.0738 1.93534 30.512C1.06608 30.512 0.41414 31.1692 0.41414 32.0455C0.41414 32.7028 -5.67068 97.7699 55.1775 124.498C55.3948 124.498 55.6121 124.717 55.8294 124.717C56.0467 124.717 56.264 124.717 56.4813 124.498C117.112 97.989 111.245 32.7028 111.245 32.0455C110.81 31.1692 110.158 30.512 109.289 30.512ZM55.6121 120.993C2.8046 97.5508 3.02192 43.2187 3.45655 33.7982C31.7075 32.7028 50.6138 11.4519 55.6121 5.09854C60.6103 11.4519 79.5167 32.7028 107.768 33.7982C108.202 43.2187 108.42 97.5508 55.6121 120.993Z" fill="#2549D3"/>
<path d="M96.6842 42.7463C78.8644 39.1524 65.1736 28.5953 56.6983 20.509C56.0463 19.8351 55.1771 19.8351 54.5251 20.509C46.2672 28.5953 32.359 39.1524 14.5392 42.7463C13.67 42.9709 13.2354 43.6448 13.2354 44.5432C14.5392 62.0635 21.4933 94.1841 54.7425 111.929C54.9598 112.154 55.1771 112.154 55.3944 112.154C55.6117 112.154 55.829 112.154 56.0463 111.929C89.5128 94.1841 96.4669 62.0635 97.5534 44.5432C97.9881 43.6448 97.3361 42.9709 96.6842 42.7463ZM55.6117 108.56C25.1877 91.9379 18.2336 62.7374 16.7124 45.891C33.8802 42.0724 47.1364 32.1892 55.6117 24.1029C64.087 32.1892 77.5605 41.8478 94.511 45.891C93.2071 62.7374 86.0358 91.9379 55.6117 108.56Z" fill="#2549D3"/>
<path d="M46.4848 50.0473V57.2187H41.4866C40.6173 57.2187 39.748 57.8707 39.748 58.9573V80.6888C39.748 81.558 40.4 82.4273 41.4866 82.4273H71.9106C72.7799 82.4273 73.6491 81.7753 73.6491 80.6888V58.9573C73.6491 58.088 72.9972 57.2187 71.9106 57.2187H66.9124V50.0473C66.9124 44.3971 62.3488 39.6162 56.4813 39.6162C50.6138 39.6162 46.4848 44.3971 46.4848 50.0473ZM70.3894 78.9502H43.2251V60.4785H48.2233H65.6085H70.6067V78.9502H70.3894ZM49.7445 50.0473C49.7445 46.1357 53.0042 42.8759 56.9159 42.8759C60.8276 42.8759 64.0873 46.1357 64.0873 50.0473V57.2187H49.9618V50.0473H49.7445Z" fill="#2549D3"/>
<path d="M56.6985 65.9113C55.8292 65.9113 54.96 66.5632 54.96 67.6498V71.9961C54.96 72.8653 55.6119 73.7346 56.6985 73.7346C57.785 73.7346 58.437 73.0826 58.437 71.9961V67.6498C58.437 66.5632 57.5677 65.9113 56.6985 65.9113Z" fill="#2549D3"/>
</svg>
