<svg width="124" height="123" viewBox="0 0 124 123" fill="none" xmlns="http://www.w3.org/2000/svg">
<path d="M113.25 69.1875V107.625C113.25 108.984 112.71 110.288 111.749 111.249C110.788 112.21 109.484 112.75 108.125 112.75H103C101.641 112.75 100.337 112.21 99.3761 111.249C98.4149 110.288 97.875 108.984 97.875 107.625V102.5H26.125V107.625C26.125 108.984 25.585 110.288 24.6239 111.249C23.6628 112.21 22.3592 112.75 21 112.75H15.875C14.5158 112.75 13.2122 112.21 12.2511 111.249C11.29 110.288 10.75 108.984 10.75 107.625V69.1875L4.37963 67.5987C3.27136 67.3211 2.28764 66.6811 1.58473 65.7804C0.881824 64.8797 0.50003 63.77 0.5 62.6275L0.5 58.9375C0.5 58.2579 0.769977 57.6061 1.25054 57.1255C1.7311 56.645 2.38288 56.375 3.0625 56.375H12.6719L23.6291 27.1522C24.3617 25.1981 25.6733 23.514 27.3886 22.3253C29.1039 21.1365 31.1413 20.4997 33.2283 20.5H90.7718C92.8587 20.4997 94.8961 21.1365 96.6114 22.3253C98.3267 23.514 99.6383 25.1981 100.371 27.1522L111.328 56.375H120.938C121.617 56.375 122.269 56.645 122.749 57.1255C123.23 57.6061 123.5 58.2579 123.5 58.9375V62.6275C123.5 63.77 123.118 64.8797 122.415 65.7804C121.712 66.6811 120.729 67.3211 119.62 67.5987L113.25 69.1875ZM21 76.875V87.125C21 88.4842 21.54 89.7878 22.5011 90.7489C23.4622 91.7101 24.7658 92.25 26.125 92.25H42.7556C43.1981 92.2493 43.6329 92.134 44.0176 91.9154C44.4024 91.6967 44.7239 91.3822 44.951 91.0024C45.178 90.6226 45.3029 90.1904 45.3133 89.748C45.3238 89.3057 45.2195 88.8681 45.0106 88.478C40.885 80.7393 32.8797 76.875 21 76.875ZM103 76.875C91.1254 76.875 83.1201 80.7444 78.9843 88.478C78.7752 88.8685 78.6709 89.3065 78.6816 89.7493C78.6923 90.1921 78.8176 90.6246 79.0452 91.0046C79.2729 91.3845 79.5952 91.699 79.9806 91.9173C80.366 92.1355 80.8014 92.2502 81.2444 92.25H97.875C99.2342 92.25 100.538 91.7101 101.499 90.7489C102.46 89.7878 103 88.4842 103 87.125V76.875ZM31.25 30.75L23.2499 54.7555C22.9934 55.5255 22.9235 56.3455 23.0459 57.1478C23.1683 57.9502 23.4795 58.712 23.9539 59.3706C24.4283 60.0291 25.0523 60.5656 25.7746 60.9358C26.4969 61.306 27.2967 61.4994 28.1084 61.5H95.8916C96.7033 61.4994 97.5031 61.306 98.2254 60.9358C98.9477 60.5656 99.5717 60.0291 100.046 59.3706C100.521 58.712 100.832 57.9502 100.954 57.1478C101.077 56.3455 101.007 55.5255 100.75 54.7555L92.75 30.75H31.25Z" fill="#2549D3"/>
<path d="M30 49.8889H35.0299L37.8077 55.7222L39.4744 49.8889L43.3632 36L46.9744 49.8889H57.8077H62.5H66.141H74.1966L77.8077 55.7222L81.141 49.8889H94.5043" stroke="#2549D3" stroke-width="2.5" stroke-linecap="round"/>
</svg>
