<svg width="67" height="111" viewBox="0 0 67 111" fill="none" xmlns="http://www.w3.org/2000/svg">
<path d="M42.8706 80.7882L61.2473 51.2393C61.3073 51.1437 61.3576 51.0432 61.3968 50.939C64.5701 45.7642 66.2456 39.8527 66.2456 33.8174C66.2456 15.7116 51.5153 0.981323 33.4095 0.981323C15.3037 0.981323 0.572165 15.7116 0.572165 33.8174C0.572165 39.8539 2.25013 45.7679 5.42588 50.9464C5.46265 51.0371 5.50555 51.1253 5.55703 51.2111L23.2743 80.8617C9.5209 82.8056 0.476562 88.461 0.476562 95.3211C0.476562 103.821 14.9213 110.478 33.3605 110.478C51.7997 110.478 66.2444 103.82 66.2444 95.3211C66.2456 88.4291 56.7797 82.6475 42.8706 80.7882ZM8.72665 49.2905C5.79726 44.628 4.24922 39.2779 4.24922 33.8174C4.24922 17.7389 17.3297 4.65838 33.4095 4.65838C49.4881 4.65838 62.5686 17.7389 62.5686 33.8174C62.5686 39.2803 61.0205 44.6304 58.0924 49.2905C58.0311 49.3885 57.9808 49.4903 57.9404 49.5957L38.5255 80.8102C38.2338 81.2576 38.1762 81.3593 37.8195 81.9452L32.9168 89.8288L8.89089 49.6214C8.848 49.5074 8.79284 49.3959 8.72665 49.2905ZM33.3617 106.801C16.1494 106.801 4.15484 100.75 4.15484 95.3211C4.15484 90.3939 13.1881 85.751 25.3384 84.3132L31.3075 94.3038C31.6372 94.8541 32.228 95.1936 32.869 95.1986C32.8739 95.1986 32.88 95.1986 32.8849 95.1986C33.5198 95.1986 34.1106 94.8701 34.4464 94.3308L40.722 84.2409C53.0658 85.5781 62.5674 90.3387 62.5674 95.3211C62.5686 100.751 50.574 106.801 33.3617 106.801Z" fill="#2549D3"/>
<path d="M45.3007 33.8175C45.3007 27.2343 39.9444 21.8781 33.3613 21.8781C26.7781 21.8781 21.4219 27.2343 21.4219 33.8175C21.4219 40.4006 26.7781 45.7569 33.3613 45.7569C39.9444 45.7569 45.3007 40.4006 45.3007 33.8175ZM25.0989 33.8175C25.0989 29.2616 28.8054 25.5551 33.3613 25.5551C37.9172 25.5551 41.6236 29.2616 41.6236 33.8175C41.6236 38.3733 37.9184 42.0798 33.3613 42.0798C28.8042 42.0798 25.0989 38.3733 25.0989 33.8175Z" fill="#2549D3"/>
</svg>
