<svg width="213" height="128" viewBox="0 0 213 128" fill="none" xmlns="http://www.w3.org/2000/svg">
<path d="M113.25 49.1875V87.625C113.25 88.9842 112.71 90.2878 111.749 91.2489C110.788 92.2101 109.484 92.75 108.125 92.75H103C101.641 92.75 100.337 92.2101 99.3761 91.2489C98.4149 90.2878 97.875 88.9842 97.875 87.625V82.5H26.125V87.625C26.125 88.9842 25.585 90.2878 24.6239 91.2489C23.6628 92.2101 22.3592 92.75 21 92.75H15.875C14.5158 92.75 13.2122 92.2101 12.2511 91.2489C11.29 90.2878 10.75 88.9842 10.75 87.625V49.1875L4.37963 47.5987C3.27136 47.3211 2.28764 46.6811 1.58473 45.7804C0.881824 44.8797 0.50003 43.77 0.5 42.6275L0.5 38.9375C0.5 38.2579 0.769977 37.6061 1.25054 37.1255C1.7311 36.645 2.38288 36.375 3.0625 36.375H12.6719L23.6291 7.15225C24.3617 5.19805 25.6733 3.51402 27.3886 2.32528C29.1039 1.13654 31.1413 0.49974 33.2283 0.5H90.7718C92.8587 0.49974 94.8961 1.13654 96.6114 2.32528C98.3267 3.51402 99.6383 5.19805 100.371 7.15225L111.328 36.375H120.938C121.617 36.375 122.269 36.645 122.749 37.1255C123.23 37.6061 123.5 38.2579 123.5 38.9375V42.6275C123.5 43.77 123.118 44.8797 122.415 45.7804C121.712 46.6811 120.729 47.3211 119.62 47.5987L113.25 49.1875ZM21 56.875V67.125C21 68.4842 21.54 69.7878 22.5011 70.7489C23.4622 71.7101 24.7658 72.25 26.125 72.25H42.7556C43.1981 72.2493 43.6329 72.134 44.0176 71.9154C44.4024 71.6967 44.7239 71.3822 44.951 71.0024C45.178 70.6226 45.3029 70.1904 45.3133 69.748C45.3238 69.3057 45.2195 68.8681 45.0106 68.478C40.885 60.7392 32.8798 56.875 21 56.875ZM103 56.875C91.1254 56.875 83.1201 60.7444 78.9843 68.478C78.7752 68.8685 78.6709 69.3065 78.6816 69.7493C78.6923 70.1921 78.8176 70.6246 79.0452 71.0046C79.2729 71.3845 79.5952 71.699 79.9806 71.9173C80.366 72.1355 80.8014 72.2502 81.2444 72.25H97.875C99.2342 72.25 100.538 71.7101 101.499 70.7489C102.46 69.7878 103 68.4842 103 67.125V56.875ZM31.25 10.75L23.2499 34.7555C22.9934 35.5255 22.9235 36.3455 23.0459 37.1478C23.1683 37.9502 23.4795 38.712 23.9539 39.3706C24.4283 40.0291 25.0523 40.5656 25.7746 40.9358C26.4969 41.306 27.2967 41.4994 28.1084 41.5H95.8916C96.7033 41.4994 97.5031 41.306 98.2254 40.9358C98.9477 40.5656 99.5717 40.0291 100.046 39.3706C100.521 38.712 100.832 37.9502 100.954 37.1478C101.077 36.3455 101.007 35.5255 100.75 34.7555L92.75 10.75H31.25Z" fill="#2549D3"/>
<path d="M120.883 105.148H168.777C169.773 105.147 170.726 104.751 171.43 104.047C172.134 103.344 172.53 102.39 172.531 101.394C172.519 101.106 172.396 100.832 172.187 100.632C171.978 100.432 171.7 100.32 171.411 100.32C171.122 100.32 170.844 100.432 170.635 100.632C170.426 100.832 170.303 101.106 170.291 101.394C170.291 101.796 170.131 102.18 169.847 102.464C169.563 102.748 169.179 102.908 168.777 102.908H120.883C120.482 102.908 120.097 102.748 119.813 102.464C119.529 102.18 119.37 101.796 119.369 101.394C119.357 101.106 119.234 100.832 119.025 100.632C118.816 100.432 118.538 100.32 118.249 100.32C117.96 100.32 117.682 100.432 117.473 100.632C117.264 100.832 117.141 101.106 117.129 101.394C117.13 102.39 117.526 103.344 118.23 104.048C118.933 104.752 119.888 105.147 120.883 105.148V105.148Z" fill="#2549D3"/>
<path d="M120.883 98.0254H168.777C169.773 98.0238 170.726 97.6278 171.43 96.9241C172.134 96.2205 172.53 95.2666 172.531 94.2715C172.519 93.9825 172.396 93.7093 172.187 93.5091C171.978 93.3089 171.7 93.1971 171.411 93.1971C171.122 93.1971 170.844 93.3089 170.635 93.5091C170.426 93.7093 170.303 93.9825 170.291 94.2715C170.291 94.6727 170.131 95.0574 169.847 95.3412C169.563 95.625 169.179 95.7846 168.777 95.7851H120.883C120.482 95.7846 120.097 95.625 119.813 95.3412C119.529 95.0574 119.37 94.6727 119.369 94.2715C119.357 93.9825 119.234 93.7093 119.025 93.5091C118.816 93.3089 118.538 93.1971 118.249 93.1971C117.96 93.1971 117.682 93.3089 117.473 93.5091C117.264 93.7093 117.141 93.9825 117.129 94.2715C117.13 95.2667 117.526 96.2209 118.23 96.9247C118.933 97.6285 119.888 98.0243 120.883 98.0254V98.0254Z" fill="#2549D3"/>
<path d="M120.883 90.9122H168.777C169.772 90.9107 170.726 90.5147 171.43 89.811C172.134 89.1073 172.53 88.1534 172.531 87.1583C172.538 87.0073 172.513 86.8565 172.46 86.7151C172.406 86.5737 172.325 86.4446 172.22 86.3355C172.116 86.2264 171.99 86.1396 171.851 86.0803C171.712 86.021 171.562 85.9904 171.411 85.9904C171.26 85.9904 171.11 86.021 170.971 86.0803C170.832 86.1396 170.707 86.2264 170.602 86.3355C170.497 86.4446 170.416 86.5737 170.362 86.7151C170.309 86.8565 170.285 87.0073 170.291 87.1583C170.29 87.5596 170.131 87.9443 169.847 88.2281C169.563 88.5118 169.179 88.6715 168.777 88.672H120.883C120.482 88.6715 120.097 88.5118 119.813 88.2281C119.529 87.9443 119.37 87.5596 119.369 87.1583C119.375 87.0073 119.351 86.8565 119.298 86.7151C119.244 86.5737 119.163 86.4446 119.058 86.3355C118.953 86.2264 118.828 86.1396 118.689 86.0803C118.55 86.021 118.4 85.9904 118.249 85.9904C118.098 85.9904 117.948 86.021 117.809 86.0803C117.67 86.1396 117.545 86.2264 117.44 86.3355C117.335 86.4446 117.254 86.5737 117.2 86.7151C117.147 86.8565 117.123 87.0073 117.129 87.1583C117.13 88.1534 117.526 89.1073 118.23 89.811C118.934 90.5147 119.888 90.9107 120.883 90.9122Z" fill="#2549D3"/>
<path d="M121.43 83.7969H168.23C169.37 83.7969 170.463 83.3442 171.269 82.5384C172.075 81.7326 172.527 80.6396 172.527 79.5V56.9824C172.526 55.8706 172.084 54.8046 171.298 54.0184C170.512 53.2322 169.446 52.7901 168.334 52.7891H121.322C120.21 52.7901 119.144 53.2322 118.358 54.0184C117.572 54.8046 117.13 55.8706 117.129 56.9824V79.4981C117.129 80.0629 117.24 80.6221 117.456 81.1439C117.672 81.6657 117.989 82.1398 118.388 82.5391C118.788 82.9383 119.262 83.2549 119.784 83.4708C120.306 83.6866 120.865 83.7974 121.43 83.7969ZM119.369 56.9824C119.369 56.4644 119.575 55.9676 119.941 55.6014C120.307 55.2351 120.804 55.0293 121.322 55.0293H168.338C168.856 55.0293 169.353 55.2351 169.719 55.6014C170.085 55.9676 170.291 56.4644 170.291 56.9824V79.4981C170.29 80.0441 170.072 80.5674 169.686 80.9533C169.3 81.3392 168.776 81.5562 168.23 81.5567H121.43C120.884 81.5562 120.36 81.3392 119.974 80.9533C119.588 80.5674 119.37 80.0441 119.369 79.4981V56.9824Z" fill="#2549D3"/>
<path d="M122.744 75.2188C123.53 75.2198 124.283 75.5323 124.838 76.0877C125.394 76.6432 125.706 77.3962 125.707 78.1817C125.707 78.4787 125.825 78.7635 126.035 78.9737C126.245 79.1839 126.529 79.3023 126.826 79.3028H162.832C163.129 79.3028 163.414 79.1847 163.625 78.9744C163.835 78.7642 163.953 78.479 163.953 78.1817C163.954 77.3962 164.267 76.6432 164.822 76.0877C165.377 75.5323 166.13 75.2198 166.916 75.2188C167.213 75.2183 167.497 75.1002 167.707 74.8904C167.917 74.6806 168.035 74.3963 168.035 74.0996V62.4863C168.035 62.1895 167.917 61.9049 167.707 61.695C167.497 61.4851 167.213 61.3672 166.916 61.3672C166.13 61.3662 165.377 61.0537 164.822 60.4982C164.267 59.9428 163.954 59.1898 163.953 58.4043C163.953 58.107 163.835 57.8218 163.625 57.6116C163.414 57.4013 163.129 57.2832 162.832 57.2832H126.826C126.529 57.2837 126.245 57.4021 126.035 57.6123C125.825 57.8224 125.707 58.1073 125.707 58.4043C125.706 59.1898 125.394 59.9428 124.838 60.4982C124.283 61.0537 123.53 61.3662 122.744 61.3672C122.597 61.3669 122.451 61.3957 122.315 61.4518C122.179 61.508 122.056 61.5903 121.952 61.6943C121.847 61.7982 121.765 61.9217 121.708 62.0576C121.652 62.1935 121.623 62.3392 121.623 62.4863V74.0938C121.623 74.2413 121.651 74.3875 121.707 74.524C121.763 74.6605 121.846 74.7845 121.95 74.889C122.054 74.9936 122.178 75.0765 122.314 75.1331C122.45 75.1897 122.597 75.2188 122.744 75.2188V75.2188ZM123.863 63.4844C124.832 63.2693 125.719 62.7824 126.421 62.0808C127.123 61.3793 127.611 60.4921 127.826 59.5234H161.828C162.043 60.492 162.53 61.3791 163.232 62.0806C163.933 62.7822 164.82 63.2692 165.789 63.4844V73.0996C164.82 73.3154 163.933 73.8028 163.232 74.5047C162.53 75.2066 162.043 76.0938 161.828 77.0625H127.826C127.61 76.0938 127.123 75.2066 126.421 74.5048C125.719 73.8029 124.832 73.3156 123.863 73.0996V63.4844Z" fill="#2549D3"/>
<path d="M144.898 69.4062H146.07C146.301 69.417 146.519 69.5162 146.678 69.6834C146.838 69.8505 146.927 70.0726 146.927 70.3037C146.927 70.5347 146.838 70.7569 146.678 70.924C146.519 71.0911 146.301 71.1904 146.07 71.2011H143.803C143.514 71.2132 143.241 71.3365 143.04 71.5452C142.84 71.754 142.728 72.032 142.728 72.3213C142.728 72.6105 142.84 72.8885 143.04 73.0973C143.241 73.306 143.514 73.4293 143.803 73.4414H144.361V73.8652C144.373 74.1542 144.497 74.4273 144.705 74.6275C144.914 74.8277 145.192 74.9395 145.481 74.9395C145.771 74.9395 146.049 74.8277 146.257 74.6275C146.466 74.4273 146.589 74.1542 146.601 73.8652V73.3906C147.376 73.258 148.073 72.839 148.554 72.2168C149.034 71.5946 149.263 70.8145 149.196 70.0312C149.128 69.248 148.769 68.5187 148.189 67.988C147.609 67.4573 146.851 67.1639 146.064 67.166H144.892C144.655 67.166 144.427 67.0715 144.259 66.9034C144.09 66.7353 143.996 66.5073 143.996 66.2695C143.996 66.0317 144.09 65.8037 144.259 65.6356C144.427 65.4675 144.655 65.373 144.892 65.373H147.16C147.449 65.3609 147.722 65.2377 147.922 65.0289C148.123 64.8202 148.234 64.5421 148.234 64.2529C148.234 63.9637 148.123 63.6856 147.922 63.4769C147.722 63.2681 147.449 63.1449 147.16 63.1328H146.594V62.709C146.582 62.42 146.458 62.1468 146.25 61.9466C146.041 61.7464 145.763 61.6346 145.474 61.6346C145.184 61.6346 144.906 61.7464 144.698 61.9466C144.489 62.1468 144.365 62.42 144.353 62.709V63.1836C143.549 63.2814 142.814 63.688 142.303 64.3177C141.793 64.9474 141.547 65.7508 141.617 66.5583C141.688 67.3659 142.07 68.1143 142.682 68.6457C143.294 69.1771 144.089 69.4498 144.898 69.4062Z" fill="#2549D3"/>
<path d="M154.146 68.7207C154.174 68.7893 154.209 68.8548 154.25 68.916C154.29 68.9768 154.336 69.0337 154.387 69.0859C154.491 69.1902 154.616 69.2731 154.752 69.33C154.819 69.3585 154.889 69.3801 154.961 69.3945C155.036 69.4055 155.112 69.4095 155.188 69.4062C155.261 69.4058 155.334 69.3987 155.406 69.3847C155.478 69.3701 155.549 69.3485 155.617 69.3203C155.685 69.291 155.75 69.2564 155.813 69.2168C155.874 69.1758 155.932 69.1287 155.984 69.0761C156.036 69.0235 156.083 68.9667 156.125 68.9062C156.164 68.8437 156.199 68.7784 156.229 68.7109C156.253 68.6433 156.273 68.5741 156.289 68.5039C156.306 68.4308 156.314 68.3561 156.313 68.2812C156.313 68.2076 156.305 68.1342 156.289 68.0625C156.273 67.9916 156.253 67.9218 156.229 67.8535C156.198 67.7864 156.163 67.7211 156.125 67.6582C156.082 67.5987 156.035 67.5426 155.984 67.4902C155.881 67.3856 155.757 67.3025 155.621 67.2458C155.485 67.1892 155.339 67.16 155.191 67.16C155.044 67.16 154.898 67.1892 154.762 67.2458C154.626 67.3025 154.502 67.3856 154.398 67.4902C154.348 67.5421 154.302 67.5983 154.262 67.6582C154.221 67.7198 154.186 67.7852 154.158 67.8535C154.131 67.9212 154.109 67.9911 154.094 68.0625C154.049 68.2801 154.071 68.5063 154.158 68.7109L154.146 68.7207Z" fill="#2549D3"/>
<path d="M133.445 68.7208C133.472 68.7898 133.507 68.8554 133.549 68.9161C133.588 68.9778 133.635 69.0348 133.688 69.086C133.894 69.2941 134.175 69.412 134.469 69.4141C134.541 69.4146 134.614 69.408 134.686 69.3946C134.757 69.3784 134.828 69.3569 134.896 69.3301C134.964 69.3012 135.03 69.2666 135.092 69.2266C135.153 69.1856 135.21 69.1385 135.262 69.086C135.315 69.0348 135.362 68.9778 135.402 68.9161C135.443 68.8542 135.477 68.7888 135.506 68.7208C135.532 68.6532 135.553 68.584 135.57 68.5137C135.596 68.3677 135.596 68.2183 135.57 68.0723C135.553 68.0014 135.532 67.9316 135.506 67.8633C135.477 67.7954 135.442 67.7301 135.402 67.668C135.362 67.6072 135.314 67.5509 135.262 67.5001C135.211 67.4464 135.154 67.3992 135.092 67.3594C135.03 67.3187 134.965 67.284 134.896 67.2559C134.829 67.2274 134.758 67.2058 134.686 67.1915C134.505 67.157 134.319 67.1671 134.143 67.2209C133.968 67.2747 133.808 67.3705 133.678 67.5001C133.574 67.6032 133.491 67.726 133.436 67.8614C133.407 67.9288 133.386 67.9988 133.371 68.0704C133.326 68.288 133.349 68.5142 133.436 68.7188L133.445 68.7208Z" fill="#2549D3"/>
</svg>
