<svg width="56" height="54" viewBox="0 0 56 54" fill="none" xmlns="http://www.w3.org/2000/svg">
<path d="M3.88282 53.1484H51.7774C52.7725 53.1469 53.7265 52.7509 54.4301 52.0472C55.1338 51.3435 55.5298 50.3896 55.5313 49.3945C55.5192 49.1055 55.396 48.8324 55.1872 48.6322C54.9785 48.432 54.7004 48.3202 54.4112 48.3202C54.122 48.3202 53.8439 48.432 53.6352 48.6322C53.4264 48.8324 53.3032 49.1055 53.2911 49.3945C53.2906 49.7958 53.1309 50.1805 52.8472 50.4643C52.5634 50.748 52.1787 50.9077 51.7774 50.9082H3.88282C3.48152 50.9077 3.09682 50.748 2.81306 50.4643C2.5293 50.1805 2.36966 49.7958 2.36914 49.3945C2.35707 49.1055 2.23378 48.8324 2.02504 48.6322C1.8163 48.432 1.53826 48.3202 1.24902 48.3202C0.959792 48.3202 0.68175 48.432 0.473008 48.6322C0.264265 48.8324 0.140976 49.1055 0.128906 49.3945C0.12994 50.3898 0.525773 51.344 1.22954 52.0478C1.93331 52.7515 2.88754 53.1474 3.88282 53.1484V53.1484Z" fill="#2549D3"/>
<path d="M3.88282 46.0254H51.7774C52.7725 46.0238 53.7265 45.6278 54.4301 44.9241C55.1338 44.2205 55.5298 43.2666 55.5313 42.2715C55.5192 41.9825 55.396 41.7093 55.1872 41.5091C54.9785 41.3089 54.7004 41.1971 54.4112 41.1971C54.122 41.1971 53.8439 41.3089 53.6352 41.5091C53.4264 41.7093 53.3032 41.9825 53.2911 42.2715C53.2906 42.6727 53.1309 43.0574 52.8472 43.3412C52.5634 43.625 52.1787 43.7846 51.7774 43.7851H3.88282C3.48152 43.7846 3.09682 43.625 2.81306 43.3412C2.5293 43.0574 2.36966 42.6727 2.36914 42.2715C2.35707 41.9825 2.23378 41.7093 2.02504 41.5091C1.8163 41.3089 1.53826 41.1971 1.24902 41.1971C0.959792 41.1971 0.68175 41.3089 0.473008 41.5091C0.264265 41.7093 0.140976 41.9825 0.128906 42.2715C0.12994 43.2667 0.525773 44.2209 1.22954 44.9247C1.93331 45.6285 2.88754 46.0243 3.88282 46.0254V46.0254Z" fill="#2549D3"/>
<path d="M3.88281 38.9122H51.7773C52.7724 38.9107 53.7264 38.5147 54.43 37.811C55.1337 37.1073 55.5297 36.1534 55.5312 35.1583C55.5375 35.0073 55.5132 34.8565 55.4598 34.7151C55.4063 34.5737 55.3248 34.4446 55.2202 34.3355C55.1156 34.2264 54.99 34.1396 54.8509 34.0803C54.7119 34.021 54.5623 33.9904 54.4111 33.9904C54.2599 33.9904 54.1103 34.021 53.9713 34.0803C53.8322 34.1396 53.7066 34.2264 53.602 34.3355C53.4974 34.4446 53.4159 34.5737 53.3624 34.7151C53.309 34.8565 53.2847 35.0073 53.291 35.1583C53.2905 35.5596 53.1308 35.9443 52.8471 36.2281C52.5633 36.5118 52.1786 36.6715 51.7773 36.672H3.88281C3.48152 36.6715 3.09681 36.5118 2.81305 36.2281C2.5293 35.9443 2.36966 35.5596 2.36914 35.1583C2.37545 35.0073 2.35115 34.8565 2.2977 34.7151C2.24425 34.5737 2.16276 34.4446 2.05813 34.3355C1.95349 34.2264 1.82788 34.1396 1.68883 34.0803C1.54979 34.021 1.40019 33.9904 1.24902 33.9904C1.09786 33.9904 0.948259 34.021 0.809214 34.0803C0.670169 34.1396 0.544553 34.2264 0.439919 34.3355C0.335285 34.4446 0.253794 34.5737 0.200347 34.7151C0.146899 34.8565 0.122598 35.0073 0.128906 35.1583C0.130456 36.1534 0.526453 37.1073 1.23011 37.811C1.93377 38.5147 2.88769 38.9107 3.88281 38.9122Z" fill="#2549D3"/>
<path d="M4.42969 31.7969H51.2305C52.3701 31.7969 53.463 31.3442 54.2688 30.5384C55.0746 29.7326 55.5273 28.6396 55.5273 27.5V4.98243C55.5263 3.8706 55.0842 2.8046 54.298 2.01841C53.5118 1.23223 52.4458 0.790097 51.334 0.789062H4.32227C3.21044 0.790097 2.14444 1.23223 1.35826 2.01841C0.572072 2.8046 0.129941 3.8706 0.128907 4.98243V27.4981C0.12865 28.0629 0.239732 28.6221 0.455799 29.1439C0.671866 29.6657 0.988681 30.1398 1.38812 30.5391C1.78756 30.9383 2.26179 31.2549 2.78369 31.4708C3.30559 31.6866 3.86492 31.7974 4.42969 31.7969ZM2.36914 4.98243C2.36914 4.46443 2.57492 3.96764 2.9412 3.60136C3.30748 3.23508 3.80426 3.0293 4.32227 3.0293H51.3379C51.8559 3.0293 52.3527 3.23508 52.719 3.60136C53.0852 3.96764 53.291 4.46443 53.291 4.98243V27.4981C53.29 28.0441 53.0725 28.5674 52.6862 28.9533C52.3 29.3392 51.7765 29.5562 51.2305 29.5567H4.42969C3.88369 29.5562 3.36018 29.3392 2.97392 28.9533C2.58766 28.5674 2.37017 28.0441 2.36914 27.4981V4.98243Z" fill="#2549D3"/>
<path d="M5.74415 23.2188C6.52964 23.2198 7.28266 23.5323 7.83808 24.0877C8.39351 24.6432 8.706 25.3962 8.70703 26.1817C8.70703 26.4787 8.82488 26.7635 9.0347 26.9737C9.24453 27.1839 9.52918 27.3023 9.82617 27.3028H45.832C46.1293 27.3028 46.4145 27.1847 46.6247 26.9744C46.835 26.7642 46.9531 26.479 46.9531 26.1817C46.9541 25.3962 47.2666 24.6432 47.822 24.0877C48.3775 23.5323 49.1305 23.2198 49.916 23.2188C50.2126 23.2183 50.497 23.1002 50.7068 22.8904C50.9165 22.6806 51.0346 22.3963 51.0351 22.0996V10.4863C51.0351 10.1895 50.9172 9.90486 50.7073 9.69498C50.4974 9.4851 50.2128 9.36719 49.916 9.36719C49.1305 9.36616 48.3775 9.05367 47.822 8.49824C47.2666 7.94281 46.9541 7.18979 46.9531 6.4043C46.9531 6.10697 46.835 5.82181 46.6247 5.61157C46.4145 5.40132 46.1293 5.2832 45.832 5.2832H9.82617C9.52918 5.28372 9.24453 5.40207 9.0347 5.61226C8.82488 5.82245 8.70703 6.1073 8.70703 6.4043C8.706 7.18979 8.39351 7.94281 7.83808 8.49824C7.28266 9.05367 6.52964 9.36616 5.74415 9.36719C5.59701 9.36694 5.45128 9.3957 5.31527 9.45182C5.17926 9.50795 5.05566 9.59035 4.95153 9.69429C4.8474 9.79824 4.76479 9.9217 4.70843 10.0576C4.65206 10.1935 4.62305 10.3392 4.62305 10.4863V22.0938C4.62254 22.2413 4.65116 22.3875 4.70727 22.524C4.76338 22.6605 4.84588 22.7845 4.95003 22.889C5.05418 22.9936 5.17795 23.0765 5.31422 23.1331C5.45049 23.1897 5.59659 23.2188 5.74415 23.2188V23.2188ZM6.86329 11.4844C7.83208 11.2693 8.71946 10.7824 9.42136 10.0808C10.1233 9.37928 10.6106 8.49213 10.8262 7.52344H44.8281C45.0433 8.49198 45.5303 9.37907 46.2318 10.0806C46.9334 10.7822 47.8205 11.2692 48.789 11.4844V21.0996C47.8204 21.3154 46.9334 21.8028 46.2319 22.5047C45.5304 23.2066 45.0434 24.0938 44.8281 25.0625H10.8262C10.6103 24.0938 10.1229 23.2066 9.42105 22.5048C8.71923 21.8029 7.83203 21.3156 6.86329 21.0996V11.4844Z" fill="#2549D3"/>
<path d="M27.8983 17.4062H29.0702C29.301 17.417 29.5187 17.5162 29.6783 17.6834C29.8378 17.8505 29.9268 18.0726 29.9268 18.3037C29.9268 18.5347 29.8378 18.7569 29.6783 18.924C29.5187 19.0911 29.301 19.1904 29.0702 19.2011H26.8026C26.5136 19.2132 26.2405 19.3365 26.0403 19.5452C25.8401 19.754 25.7283 20.032 25.7283 20.3213C25.7283 20.6105 25.8401 20.8885 26.0403 21.0973C26.2405 21.306 26.5136 21.4293 26.8026 21.4414H27.3612V21.8652C27.3733 22.1542 27.4966 22.4273 27.7053 22.6275C27.9141 22.8277 28.1921 22.9395 28.4813 22.9395C28.7706 22.9395 29.0486 22.8277 29.2574 22.6275C29.4661 22.4273 29.5894 22.1542 29.6015 21.8652V21.3906C30.3764 21.258 31.0732 20.839 31.5537 20.2168C32.0343 19.5946 32.2635 18.8145 32.1959 18.0312C32.1283 17.248 31.7689 16.5187 31.1888 15.988C30.6088 15.4573 29.8505 15.1639 29.0643 15.166H27.8925C27.6547 15.166 27.4267 15.0715 27.2586 14.9034C27.0904 14.7353 26.996 14.5073 26.996 14.2695C26.996 14.0317 27.0904 13.8037 27.2586 13.6356C27.4267 13.4675 27.6547 13.373 27.8925 13.373H30.1601C30.449 13.3609 30.7222 13.2377 30.9224 13.0289C31.1226 12.8202 31.2344 12.5421 31.2344 12.2529C31.2344 11.9637 31.1226 11.6856 30.9224 11.4769C30.7222 11.2681 30.449 11.1449 30.1601 11.1328H29.5936V10.709C29.5816 10.42 29.4583 10.1468 29.2495 9.94663C29.0408 9.74643 28.7628 9.63464 28.4735 9.63464C28.1843 9.63464 27.9063 9.74643 27.6975 9.94663C27.4888 10.1468 27.3655 10.42 27.3534 10.709V11.1836C26.5487 11.2814 25.8135 11.688 25.303 12.3177C24.7925 12.9474 24.5467 13.7508 24.6174 14.5583C24.6881 15.3659 25.0698 16.1143 25.682 16.6457C26.2942 17.1771 27.0889 17.4498 27.8983 17.4062Z" fill="#2549D3"/>
<path d="M37.1465 16.7207C37.1738 16.7893 37.2085 16.8548 37.25 16.916C37.2901 16.9768 37.3359 17.0337 37.3867 17.0859C37.4915 17.1902 37.6155 17.2731 37.752 17.33C37.8193 17.3585 37.8893 17.3801 37.9609 17.3945C38.0359 17.4055 38.1118 17.4095 38.1875 17.4062C38.2609 17.4058 38.3342 17.3987 38.4063 17.3847C38.4785 17.3701 38.5491 17.3485 38.6172 17.3203C38.6849 17.291 38.7503 17.2564 38.8125 17.2168C38.8744 17.1758 38.932 17.1287 38.9844 17.0761C39.0359 17.0235 39.0829 16.9667 39.125 16.9062C39.1642 16.8437 39.1988 16.7784 39.2285 16.7109C39.2532 16.6433 39.2734 16.5741 39.2891 16.5039C39.3057 16.4308 39.3135 16.3561 39.3125 16.2812C39.3133 16.2076 39.3054 16.1342 39.2891 16.0625C39.2731 15.9916 39.2529 15.9218 39.2285 15.8535C39.198 15.7864 39.1634 15.7211 39.125 15.6582C39.0824 15.5987 39.0354 15.5426 38.9844 15.4902C38.8805 15.3856 38.757 15.3025 38.6209 15.2458C38.4848 15.1892 38.3388 15.16 38.1914 15.16C38.044 15.16 37.898 15.1892 37.7619 15.2458C37.6258 15.3025 37.5023 15.3856 37.3984 15.4902C37.3481 15.5421 37.3024 15.5983 37.2617 15.6582C37.2211 15.7198 37.1864 15.7852 37.1582 15.8535C37.1308 15.9212 37.1092 15.9911 37.0938 16.0625C37.049 16.2801 37.0715 16.5063 37.1582 16.7109L37.1465 16.7207Z" fill="#2549D3"/>
<path d="M16.4453 16.7208C16.4719 16.7898 16.5066 16.8554 16.5488 16.9161C16.5884 16.9778 16.6349 17.0348 16.6875 17.086C16.8945 17.2941 17.1753 17.412 17.4688 17.4141C17.5415 17.4146 17.6141 17.408 17.6856 17.3946C17.7574 17.3784 17.8279 17.3569 17.8965 17.3301C17.9644 17.3012 18.0297 17.2666 18.0918 17.2266C18.1531 17.1856 18.21 17.1385 18.2617 17.086C18.3149 17.0348 18.362 16.9778 18.4023 16.9161C18.4427 16.8542 18.4773 16.7888 18.5059 16.7208C18.5318 16.6532 18.5533 16.584 18.5703 16.5137C18.5964 16.3677 18.5964 16.2183 18.5703 16.0723C18.553 16.0014 18.5315 15.9316 18.5059 15.8633C18.4769 15.7954 18.4423 15.7301 18.4023 15.668C18.3615 15.6072 18.3144 15.5509 18.2617 15.5001C18.211 15.4464 18.154 15.3992 18.0918 15.3594C18.0302 15.3187 17.9648 15.284 17.8965 15.2559C17.8285 15.2274 17.7578 15.2058 17.6856 15.1915C17.5051 15.157 17.319 15.1671 17.1434 15.2209C16.9678 15.2747 16.8079 15.3705 16.6777 15.5001C16.5738 15.6032 16.4915 15.726 16.4356 15.8614C16.4073 15.9288 16.3857 15.9988 16.3711 16.0704C16.3263 16.288 16.3488 16.5142 16.4356 16.7188L16.4453 16.7208Z" fill="#2549D3"/>
</svg>
