<svg width="87" height="87" viewBox="0 0 87 87" fill="none" xmlns="http://www.w3.org/2000/svg">
<ellipse cx="43.5049" cy="43.3871" rx="43" ry="42.9538" fill="#2549D3"/>
<path d="M27.5785 50.1133H45.248C45.7918 50.1133 46.2297 50.5291 46.2297 51.0456C46.2297 51.5621 45.7918 51.9779 45.248 51.9779H27.5785C27.0346 51.9779 26.5968 51.5621 26.5968 51.0456C26.5968 50.5291 27.0346 50.1133 27.5785 50.1133ZM36.4132 53.8426C34.2536 53.8426 32.4867 55.5208 32.4867 57.5719C32.4867 59.6231 34.2536 61.3012 36.4132 61.3012C38.5729 61.3012 40.3398 59.6231 40.3398 57.5719C40.3398 55.5208 38.5729 53.8426 36.4132 53.8426ZM36.4132 55.7073C37.5088 55.7073 38.3765 56.5314 38.3765 57.5719C38.3765 58.6124 37.5088 59.4366 36.4132 59.4366C35.3177 59.4366 34.45 58.6124 34.45 57.5719C34.45 56.5314 35.3177 55.7073 36.4132 55.7073ZM36.4132 40.79C34.2536 40.79 32.4867 42.4682 32.4867 44.5193C32.4867 46.5704 34.2536 48.2486 36.4132 48.2486C38.5729 48.2486 40.3398 46.5704 40.3398 44.5193C40.3398 42.4682 38.5729 40.79 36.4132 40.79ZM36.4132 42.6546C37.5088 42.6546 38.3765 43.4788 38.3765 44.5193C38.3765 45.5598 37.5088 46.384 36.4132 46.384C35.3177 46.384 34.45 45.5598 34.45 44.5193C34.45 43.4788 35.3177 42.6546 36.4132 42.6546ZM59.9726 24.008C57.813 24.008 56.0461 25.6862 56.0461 27.7374C56.0461 29.7885 57.813 31.4667 59.9726 31.4667C62.1323 31.4667 63.8992 29.7885 63.8992 27.7374C63.8992 25.6862 62.1323 24.008 59.9726 24.008ZM59.9726 25.8727C61.0682 25.8727 61.9359 26.6969 61.9359 27.7374C61.9359 28.7778 61.0682 29.602 59.9726 29.602C58.8771 29.602 58.0094 28.7778 58.0094 27.7374C58.0094 26.6969 58.8771 25.8727 59.9726 25.8727ZM11.7662 47.6333C10.6137 48.7148 10.6216 50.5086 11.7662 51.5938L34.8544 73.5222C35.9931 74.6075 37.8818 74.6168 39.0224 73.5222L67.5411 46.1043C68.026 45.6381 68.5856 45.2092 69.0489 44.5081C69.5103 43.807 69.7871 42.8859 69.7871 41.6291V21.2111C69.7871 19.6764 68.456 18.4141 66.8422 18.4141H45.2461C42.9726 18.4141 41.665 19.5776 40.6323 20.5491L11.7662 47.6333ZM13.1464 48.9609L42.0086 21.8749C43.055 20.8941 43.5949 20.2787 45.248 20.2787H66.8441C67.4037 20.2787 67.8258 20.6778 67.8258 21.2111V41.6328C67.8258 42.6528 67.6432 43.1339 67.386 43.5217C67.1308 43.9133 66.7106 44.2564 66.1491 44.7971L37.6226 72.2076C37.2359 72.5806 36.641 72.5806 36.2424 72.2039L13.1542 50.2755C12.7557 49.897 12.7517 49.3283 13.1464 48.9591V48.9609Z" fill="white"/>
</svg>
