<svg width="87" height="87" viewBox="0 0 87 87" fill="none" xmlns="http://www.w3.org/2000/svg">
<ellipse cx="43.5049" cy="43.3871" rx="43" ry="42.9538" fill="#2549D3"/>
<path d="M30.7336 54.6957V51.5277H34.9096V48.6957H30.7336V45.5277H34.9096V29.6397H47.8696C49.8856 29.6397 51.6776 30.0237 53.2456 30.7917C54.8136 31.5277 56.0456 32.5837 56.9416 33.9597C57.8696 35.3357 58.3336 37.0157 58.3336 38.9997V39.5757C58.3336 41.5277 57.8696 43.1917 56.9416 44.5677C56.0456 45.9117 54.7976 46.9357 53.1976 47.6397C51.5976 48.3437 49.8216 48.6957 47.8696 48.6957H38.9416V51.5277H50.6536V54.6957H38.9416V63.2397H34.9096V54.6957H30.7336ZM38.9416 45.5277H47.5336C49.6456 45.5277 51.3096 45.0157 52.5256 43.9917C53.7416 42.9357 54.3496 41.4797 54.3496 39.6237V39.1437C54.3496 37.2877 53.7416 35.8477 52.5256 34.8237C51.3096 33.7997 49.6456 33.2877 47.5336 33.2877H38.9416V45.5277Z" fill="white"/>
</svg>
