<svg width="87" height="87" viewBox="0 0 87 87" fill="none" xmlns="http://www.w3.org/2000/svg">
<ellipse cx="43.5049" cy="43.3871" rx="43" ry="42.9538" fill="#2549D3"/>
<path d="M57.0911 26.8783V22.5102C57.0911 21.3059 56.1115 20.3306 54.9093 20.3306C53.705 20.3306 52.7275 21.3059 52.7275 22.5102V26.8782C52.7275 28.0825 53.7071 29.0578 54.9093 29.0578C56.1137 29.0579 57.0911 28.0826 57.0911 26.8783Z" fill="white"/>
<path d="M63.636 33.4214H24.3633V35.6032H63.636V33.4214Z" fill="white"/>
<path d="M33.6365 29.0579C34.5398 29.0579 35.2728 28.3292 35.2728 27.4172V21.9713C35.2728 21.0659 34.5419 20.3306 33.6365 20.3306H32.5456C31.6423 20.3306 30.9092 21.0593 30.9092 21.9713V27.415C30.9092 28.3226 31.6401 29.0579 32.5456 29.0579H33.6365Z" fill="white"/>
<path d="M50.545 24.6941H37.4541V26.8759H50.545V24.6941Z" fill="white"/>
<path d="M45.5455 60.377H46.0455V59.877V42.4224V41.9224H45.5455H43.7891H43.4044L43.3058 42.2942C43.0027 43.437 42.5813 44.0105 42.1435 44.2286L42.1429 44.229C41.5989 44.501 40.5627 44.7236 38.9581 44.8586L38.5 44.8972V45.3569V46.834V47.334H39H42.9182V59.877V60.377H43.4182H45.5455Z" fill="white" stroke="white"/>
<path d="M20 63.9668C20 66.1486 22.4 66.1486 22.4 66.1486H65.8182C65.8182 66.1486 68 66.1486 68 63.9668V24.6941H59.2728V26.8759H65.8182V63.9668H22.1818V26.876H28.7273V24.6941H20V63.9668Z" fill="white"/>
<path d="M53.681 44.5314C53.2839 43.7416 53.4934 44.1605 53.681 44.5314V44.5314Z" fill="white"/>
</svg>
