<svg width="86" height="86" viewBox="0 0 86 86" fill="none" xmlns="http://www.w3.org/2000/svg">
<circle cx="43" cy="43" r="43" fill="#2549D3"/>
<path d="M27 25H56C58.2091 25 60 26.7909 60 29V56C60 58.2091 58.2091 60 56 60H27V25Z" fill="#2549D3" stroke="white" stroke-width="2"/>
<path d="M39.0731 38.356V46H36.9871V39.924H34.2151V46H32.1291V38.356H39.0731ZM47.5899 39.924H45.0839V46H42.9979V39.924H40.4919V38.356H47.5899V39.924ZM51.9715 46.14C51.2155 46.14 50.5715 46.0047 50.0395 45.734C49.5075 45.454 49.1015 45.0247 48.8215 44.446C48.5415 43.8673 48.4015 43.1253 48.4015 42.22C48.4015 41.2867 48.5602 40.526 48.8775 39.938C49.1948 39.35 49.6335 38.916 50.1935 38.636C50.7628 38.356 51.4162 38.216 52.1535 38.216C52.6762 38.216 53.1288 38.2673 53.5115 38.37C53.9035 38.4727 54.2442 38.594 54.5335 38.734L53.9175 40.344C53.5908 40.2133 53.2828 40.106 52.9935 40.022C52.7135 39.938 52.4335 39.896 52.1535 39.896C51.7895 39.896 51.4862 39.9847 51.2435 40.162C51.0008 40.33 50.8188 40.5867 50.6975 40.932C50.5855 41.268 50.5295 41.6927 50.5295 42.206C50.5295 42.71 50.5902 43.13 50.7115 43.466C50.8422 43.7927 51.0288 44.04 51.2715 44.208C51.5142 44.3667 51.8082 44.446 52.1535 44.446C52.5922 44.446 52.9795 44.39 53.3155 44.278C53.6515 44.1567 53.9782 43.9933 54.2955 43.788V45.566C53.9782 45.7713 53.6422 45.916 53.2875 46C52.9422 46.0933 52.5035 46.14 51.9715 46.14Z" fill="white"/>
</svg>
