<svg width="86" height="86" viewBox="0 0 86 86" fill="none" xmlns="http://www.w3.org/2000/svg">
<circle cx="43" cy="43" r="43" fill="#2549D3"/>
<path d="M24.125 61.75V24.25C24.125 22.5258 25.5289 21.125 27.25 21.125H58.5C60.2242 21.125 61.625 22.5258 61.625 24.25V42.6215L64.75 39.4965V24.25C64.75 20.7984 61.9515 18 58.5 18H27.25C23.7984 18 21 20.7984 21 24.25V61.75C21 65.2016 23.7984 68 27.25 68H44.4375V64.875H27.25C25.5289 64.875 24.125 63.4742 24.125 61.75ZM55.375 27.375H30.375V30.5H55.375V27.375ZM55.375 33.625H30.375V36.75H55.375V33.625ZM55.375 39.875H30.375V43H55.375V39.875ZM30.375 49.25H42.875V46.125H30.375V49.25ZM70.0844 46.125L67.875 43.9156C67.2644 43.3051 66.4652 43 65.6656 43C64.866 43 64.0664 43.3051 63.4562 43.9156L50.0406 57.3313C49.4301 57.9414 47.5625 60.302 47.5625 61.1016L46 68L52.8969 66.4375C52.8969 66.4375 56.0586 64.5699 56.6687 63.9594L70.0844 50.5437C71.3051 49.3234 71.3051 47.3441 70.0844 46.125ZM55.5672 62.8516C55.3902 63.0195 54.7781 63.4328 54.0305 63.909L49.9824 59.8609C50.3976 59.2918 50.8598 58.7195 51.1453 58.4359L61.2465 48.3348L65.6656 52.7539L55.5672 62.8516Z" fill="white"/>
</svg>
