<svg width="86" height="86" viewBox="0 0 86 86" fill="none" xmlns="http://www.w3.org/2000/svg">
<circle cx="43" cy="43" r="43" fill="#2549D3"/>
<path d="M55.037 58.7407H30.9629V60.5926H55.037V58.7407Z" fill="white"/>
<path d="M43.9259 30.963H30.9629V32.8148H43.9259V30.963Z" fill="white"/>
<path d="M55.037 53.1852H30.9629V55.037H55.037V53.1852Z" fill="white"/>
<path d="M43.9259 25.4074H30.9629V27.2593H43.9259V25.4074Z" fill="white"/>
<path d="M49.4813 18H48.5554H29.1109C27.0738 18 25.4072 19.6666 25.4072 21.7037V64.2963C25.4072 66.3333 27.0738 68 29.1109 68H56.8887C58.9257 68 60.5924 66.3333 60.5924 64.2963V31.8889V30.9631L49.4813 18ZM49.4813 20.7778L58.1851 30.9631H51.3332C50.4073 30.9631 49.4813 30.0372 49.4813 29.1112V20.7778ZM58.7406 64.2963C58.7406 65.2222 57.9998 66.1481 56.8887 66.1481H29.1109C28.1851 66.1481 27.2591 65.4074 27.2591 64.2963V21.7037C27.2591 20.7778 27.9998 19.8519 29.1109 19.8519H47.6294V29.1111C47.6294 31.1482 49.2962 32.8148 51.3332 32.8148H58.7406V64.2963Z" fill="white"/>
<path d="M55.037 47.6296H30.9629V49.4815H55.037V47.6296Z" fill="white"/>
<path d="M55.037 36.5185H30.9629V38.3704H55.037V36.5185Z" fill="white"/>
<path d="M55.037 42.0741H30.9629V43.9259H55.037V42.0741Z" fill="white"/>
</svg>
