<svg width="86" height="86" viewBox="0 0 86 86" fill="none" xmlns="http://www.w3.org/2000/svg">
<circle cx="43" cy="43" r="43" fill="#2549D3"/>
<path fill-rule="evenodd" clip-rule="evenodd" d="M63.8214 47.9164L61.4367 49.2639L59.7381 48.2526V46.1565L55.6847 43.7242L53.756 44.6892L52.9325 44.1978V42.0731L48.8791 39.6408L46.9232 40.6195L43.27 38.4417C41.9575 39.5715 40.3185 40.2525 38.5918 40.3854C38.3818 40.404 38.1711 40.4144 37.9603 40.4167C36.7838 40.4133 35.6223 40.1522 34.5575 39.6517V34.6687C34.9754 34.8565 35.4313 34.9722 35.9186 34.9722C36.5916 34.9722 37.2495 34.7727 37.8091 34.3988C38.3687 34.0248 38.8048 33.4934 39.0624 32.8716C39.3199 32.2499 39.3873 31.5657 39.256 30.9056C39.1247 30.2455 38.8006 29.6392 38.3247 29.1633C37.8489 28.6874 37.2425 28.3633 36.5825 28.232C35.9224 28.1008 35.2382 28.1681 34.6164 28.4257C33.9946 28.6832 33.4632 29.1194 33.0893 29.679C32.7154 30.2385 32.5158 30.8964 32.5158 31.5694V38.3206C31.6602 37.5574 30.9754 36.6222 30.5063 35.5761C30.0372 34.5299 29.7943 33.3965 29.7936 32.25C29.7936 27.7474 33.455 24.0833 37.9603 24.0833C41.9742 24.0833 45.313 26.9961 45.9908 30.8181C46.0752 31.2836 46.1269 31.76 46.1269 32.25C46.1269 33.3117 45.9173 34.3271 45.5458 35.2581L63.8214 45.6637V47.9178V47.9164ZM37.9603 64.9167H27.7519V54.8022L33.1624 50.5311L37.9603 54.53V64.9153V64.9167ZM50.1626 33.2001C50.1858 32.8856 50.2103 32.5712 50.2103 32.25C50.2103 25.4962 44.7141 20 37.9603 20C31.2064 20 25.7103 25.4962 25.7103 32.25C25.7103 37.0479 28.4897 41.1979 32.5158 43.2069V45.8393L19 56.5091L21.5317 59.7145L23.6686 58.0267V69H42.0436V57.9328L44.1397 59.6805L46.7531 56.5431L42.0436 52.6177V47.2222H37.9603V49.2163L34.5575 46.3797V43.9978C35.6619 44.3269 36.8078 44.496 37.9603 44.5C39.8188 44.4978 41.652 44.0694 43.319 43.2478L46.3856 45.0771L49.5297 43.8194V46.9527L53.217 49.1509L56.3339 47.9028V51.0102L61.0978 53.8508L67.9034 50.6114V43.3376L50.1626 33.2001Z" fill="white"/>
<rect width="28.5833" height="23.1389" transform="translate(19 45.861)" fill="#2549D3"/>
<rect x="28.166" y="46.861" width="10.25" height="17.0556" fill="#2549D3" stroke="white" stroke-width="2"/>
</svg>
