<svg width="86" height="86" viewBox="0 0 86 86" fill="none" xmlns="http://www.w3.org/2000/svg">
<circle cx="43" cy="43" r="43" fill="#2549D3"/>
<path d="M61.5469 17.8228C61.5469 16.5759 61.0063 15.3925 60.0645 14.5761C59.1226 13.7605 57.8748 13.3945 56.6424 13.5689L24.4717 18.1648C24.4313 18.1709 24.3978 18.1923 24.3591 18.2035C24.3093 18.2181 24.2612 18.2302 24.2156 18.2534C24.1623 18.28 24.1185 18.3135 24.0721 18.3496C24.0326 18.3805 23.9939 18.408 23.9604 18.445C23.9217 18.4888 23.8934 18.5378 23.8641 18.5885C23.8392 18.6315 23.8117 18.671 23.7945 18.7174C23.773 18.775 23.767 18.836 23.7584 18.8979C23.7524 18.9383 23.7344 18.9744 23.7344 19.0156V67.1406C23.7344 67.6158 24.1185 68 24.5938 68H58.9688C61.338 68 63.2656 66.0724 63.2656 63.7031V22.4531C63.2656 21.0532 62.5824 19.8191 61.5434 19.0345C61.5434 19.0277 61.5469 19.0225 61.5469 19.0156V17.8228ZM61.5469 63.7031C61.5469 65.1245 60.3902 66.2812 58.9688 66.2812H25.4531V19.875H58.9688C60.3902 19.875 61.5469 21.0317 61.5469 22.4531V63.7031ZM36.686 18.1563L56.8856 15.2713C57.6281 15.163 58.3741 15.3856 58.9387 15.8755C59.5041 16.3645 59.8281 17.0752 59.8281 17.8228V18.1563H58.9688H36.686Z" fill="white"/>
<path d="M52.9531 47.375H34.0469C32.6255 47.375 31.4688 48.5317 31.4688 49.9531V58.5469C31.4688 59.9683 32.6255 61.125 34.0469 61.125H52.9531C54.3745 61.125 55.5312 59.9683 55.5312 58.5469V49.9531C55.5312 48.5317 54.3745 47.375 52.9531 47.375ZM34.0469 49.0938H52.9531C53.4275 49.0938 53.8125 49.4787 53.8125 49.9531V53.3906H46.8155C46.4313 51.9116 45.0976 50.8125 43.5 50.8125C41.9024 50.8125 40.5687 51.9116 40.1845 53.3906H33.1875V49.9531C33.1875 49.4787 33.5725 49.0938 34.0469 49.0938ZM45.2188 54.25C45.2188 55.1979 44.4479 55.9688 43.5 55.9688C42.5521 55.9688 41.7812 55.1979 41.7812 54.25C41.7812 53.3021 42.5521 52.5312 43.5 52.5312C44.4479 52.5312 45.2188 53.3021 45.2188 54.25ZM52.9531 59.4062H34.0469C33.5725 59.4062 33.1875 59.0212 33.1875 58.5469V55.1094H40.1845C40.5687 56.5884 41.9024 57.6875 43.5 57.6875C45.0976 57.6875 46.4313 56.5884 46.8155 55.1094H53.8125V58.5469C53.8125 59.0212 53.4275 59.4062 52.9531 59.4062Z" fill="white"/>
<path d="M43.5 45.6562C49.66 45.6562 54.6719 40.6444 54.6719 34.4844C54.6719 28.3244 49.66 23.3125 43.5 23.3125C37.34 23.3125 32.3281 28.3244 32.3281 34.4844C32.3281 40.6444 37.34 45.6562 43.5 45.6562ZM36.6473 40.977C37.5935 40.5971 38.5646 40.298 39.552 40.0823C40.1802 41.5751 40.9408 42.8272 41.581 43.7407C39.6569 43.342 37.951 42.352 36.6473 40.977ZM45.8255 29.4759C44.282 29.671 42.7188 29.671 41.1745 29.4759C41.9222 27.7305 42.8804 26.3306 43.5 25.5228C44.1196 26.3306 45.0778 27.7305 45.8255 29.4759ZM43.5 31.3459C44.4771 31.3459 45.4542 31.2669 46.4227 31.1259C46.6573 31.9183 46.8292 32.7562 46.8988 33.625H40.1003C40.1708 32.7562 40.3418 31.9183 40.5764 31.1259C41.5458 31.2669 42.5229 31.3459 43.5 31.3459ZM41.3017 39.7841C42.7609 39.6097 44.2382 39.6097 45.6974 39.7841C44.9712 41.3937 44.0852 42.6828 43.5 43.4459C42.9148 42.6828 42.0287 41.3937 41.3017 39.7841ZM40.6675 38.1393C40.3856 37.261 40.1802 36.3217 40.1012 35.3438H46.8997C46.8206 36.3217 46.6144 37.261 46.3334 38.1393C44.4539 37.8738 42.5461 37.8738 40.6675 38.1393ZM48.6184 35.3438H52.9102C52.7701 36.8898 52.2536 38.3258 51.4578 39.5676C50.3492 39.0898 49.2045 38.7168 48.0401 38.4487C48.3331 37.4767 48.5428 36.4352 48.6184 35.3438ZM48.6184 33.625C48.5505 32.641 48.3718 31.7 48.1217 30.8105C49.3102 30.5321 50.4755 30.1394 51.6048 29.6427C52.3163 30.8286 52.7795 32.1778 52.9102 33.625H48.6184ZM38.3816 33.625H34.0898C34.2213 32.1778 34.6845 30.8286 35.3952 29.6427C36.5245 30.1402 37.6898 30.5321 38.8783 30.8105C38.6282 31.7 38.4495 32.641 38.3816 33.625ZM38.3816 35.3438C38.4572 36.4352 38.666 37.4767 38.9608 38.4487C37.7963 38.7168 36.6516 39.0898 35.543 39.5676C34.7464 38.3258 34.2308 36.8898 34.0907 35.3438H38.3816ZM45.419 43.7407C46.0592 42.8272 46.8198 41.5742 47.448 40.0823C48.4354 40.298 49.4065 40.5971 50.3527 40.977C49.049 42.352 47.3431 43.342 45.419 43.7407ZM50.5606 28.2204C49.5878 28.6252 48.5858 28.9431 47.5674 29.1726C46.9203 27.5535 46.1005 26.2009 45.419 25.2289C47.448 25.6483 49.2329 26.7259 50.5606 28.2204ZM41.581 25.228C40.9004 26.2 40.0805 27.5527 39.4326 29.1717C38.4142 28.9423 37.413 28.6243 36.4394 28.2195C37.7671 26.7259 39.552 25.6483 41.581 25.228Z" fill="white"/>
<path d="M46.0781 62.8438H40.9219V64.5625H46.0781V62.8438Z" fill="white"/>
</svg>
