<svg width="86" height="86" viewBox="0 0 86 86" fill="none" xmlns="http://www.w3.org/2000/svg">
<circle cx="43" cy="43" r="43" fill="#2549D3"/>
<path d="M20 20H62C64.2091 20 66 21.7909 66 24V62C66 64.2091 64.2091 66 62 66H20V20Z" fill="#2549D3" stroke="white" stroke-width="2"/>
<path d="M47.7926 44.3005C47.278 43.7858 46.4401 43.7858 45.9251 44.3005L45.9065 44.3191L45.5397 43.9523L49.1709 40.3213C51.05 40.8987 53.0596 40.4053 54.4535 39.0114C55.6792 37.7857 56.2255 36.0361 55.9146 34.3314C55.8956 34.228 55.821 34.1435 55.7207 34.1124C55.6207 34.081 55.5113 34.1081 55.4367 34.1825L52.9062 36.7127L49.7867 36.2133L49.2874 33.0938L51.8176 30.5633C51.8919 30.489 51.9187 30.3796 51.8877 30.2793C51.8566 30.179 51.7721 30.1044 51.6686 30.0854C49.9642 29.7751 48.2143 30.3209 46.9886 31.5465C45.5948 32.9404 45.101 34.9497 45.6787 36.8291L42.0477 40.4606L34.4712 32.8841C34.4427 32.8556 34.4082 32.8335 34.3706 32.8194L32.4723 32.1084C32.3683 32.0697 32.2516 32.0948 32.1733 32.1731C32.095 32.2514 32.0696 32.3684 32.1086 32.4721L32.8196 34.3704C32.8338 34.4083 32.8558 34.4425 32.8843 34.471L40.4609 42.0475L36.8296 45.6785C34.9502 45.1008 32.9406 45.5948 31.547 46.9884C30.3211 48.2141 29.7748 49.9637 30.0856 51.6684C30.1046 51.7719 30.1792 51.8564 30.2795 51.8874C30.3798 51.9191 30.4892 51.892 30.5635 51.8174L33.094 49.2871L36.2135 49.7865L36.7129 52.906L34.1827 55.4365C34.1083 55.5108 34.0815 55.6202 34.1126 55.7205C34.1437 55.8208 34.2282 55.8954 34.3316 55.9144C34.6467 55.9717 34.9635 56 35.2781 56C36.6654 56 38.0126 55.4523 39.0116 54.453C40.4055 53.0594 40.8992 51.0498 40.3215 49.1704L43.9525 45.5392L44.3193 45.906L44.3007 45.9246C43.7858 46.4396 43.7858 47.2772 44.3007 47.7921L51.1506 54.6421C51.4067 54.8981 51.743 55.0258 52.0798 55.0258C52.4181 55.0258 52.757 54.8967 53.015 54.6387L54.6394 53.0142C55.1544 52.4993 55.1558 51.6631 54.6425 51.1501L47.7926 44.3005ZM46.8699 49.5624L47.4185 49.0139L49.9272 51.5226L49.3786 52.0711L46.8699 49.5624ZM49.1627 46.4704L48.4147 47.2184L47.2186 48.4144L46.4706 49.1625L45.6742 48.3661L48.3663 45.674L49.1627 46.4704ZM48.6145 47.8179L51.1232 50.3266L50.3268 51.123L47.8181 48.6143L48.6145 47.8179ZM49.7785 52.4705L50.5266 51.7224L51.7226 50.5264L52.4707 49.7783L53.2671 50.5747L50.5749 53.2669L49.7785 52.4705ZM51.5228 49.927L49.0141 47.4182L49.5626 46.8697L52.0714 49.3787L51.5228 49.927ZM46.201 37.1066C46.2773 37.0303 46.3036 36.9173 46.2685 36.815C45.6776 35.0936 46.1066 33.2281 47.3882 31.9462C48.3491 30.9856 49.6703 30.4924 51.0079 30.5738L48.7857 32.796C48.7216 32.8601 48.6922 32.9508 48.7066 33.0404L49.2611 36.5044C49.2803 36.6248 49.375 36.7194 49.4954 36.7387L52.9593 37.2931C53.0486 37.3076 53.1396 37.2779 53.2038 37.214L55.4259 34.9918C55.5076 36.3297 55.0142 37.6509 54.0536 38.6115C52.7719 39.8934 50.9064 40.3225 49.1848 39.7312C49.0822 39.6956 48.9691 39.7222 48.8931 39.7988L45.1398 43.5527L44.3422 42.7552L47.2379 39.8595C47.3845 39.7131 47.4651 39.5181 47.4651 39.3107C47.4651 39.1033 47.3843 38.9083 47.2381 38.7619C46.9454 38.4691 46.433 38.4691 46.1405 38.7619L43.2449 41.6575L42.4473 40.86L46.201 37.1066ZM43.6445 42.0574L46.5404 39.1618C46.6195 39.0824 46.7591 39.0821 46.8385 39.1618C46.8784 39.2013 46.9001 39.2545 46.9001 39.3107C46.9001 39.3669 46.8784 39.4201 46.8385 39.4596L43.9426 42.3556L43.6445 42.0574ZM39.7993 48.8932C39.723 48.9695 39.6967 49.0825 39.7317 49.1848C40.3227 50.9062 39.8937 52.7717 38.612 54.0534C37.6514 55.014 36.3316 55.5077 34.9923 55.426L37.2145 53.2039C37.2787 53.1397 37.3081 53.049 37.2936 52.9594L36.7392 49.4954C36.7199 49.375 36.6253 49.2804 36.5049 49.2611L33.0409 48.7064C32.9513 48.6914 32.8603 48.7214 32.7965 48.7855L30.5743 51.0077C30.4926 49.6698 30.986 48.3486 31.9469 47.388C33.2288 46.1064 35.0946 45.6776 36.8155 46.2683C36.9175 46.3031 37.0305 46.2771 37.1071 46.2008L40.8608 42.4471L41.6583 43.2446L38.7621 46.14C38.6157 46.2864 38.5349 46.4814 38.5349 46.6888C38.5349 46.8963 38.6157 47.0913 38.7618 47.2377C38.9082 47.384 39.1032 47.4649 39.3106 47.4649C39.5181 47.4649 39.7131 47.384 39.8595 47.2377L42.7554 44.3423L43.5529 45.1398L39.7993 48.8932ZM42.3558 43.9424L39.4601 46.8383C39.381 46.9177 39.2414 46.918 39.162 46.8383C39.1221 46.7988 39.1004 46.7456 39.1004 46.6894C39.1004 46.6332 39.1221 46.58 39.162 46.5402L42.0576 43.6443L42.3558 43.9424ZM44.1523 44.9397L42.9552 43.7426L42.2571 43.0446L41.06 41.8474L33.3272 34.1149L32.8555 32.8556L34.1148 33.3273L41.8476 41.0601L43.0448 42.2572L43.7428 42.9553L44.94 44.1524L45.5066 44.719L44.719 45.5067L44.1523 44.9397ZM44.7003 46.3245L44.9188 46.1061L46.106 44.9188L46.3245 44.7004C46.4717 44.5531 46.6653 44.4797 46.8586 44.4797C47.0522 44.4797 47.2455 44.5531 47.3927 44.7004L47.9667 45.2744L45.274 47.9671L44.7 47.3931C44.4058 47.0983 44.4058 46.619 44.7003 46.3245ZM54.2395 52.6149L52.6151 54.2393C52.4724 54.3821 52.283 54.4609 52.0818 54.4615C51.8817 54.4634 51.6921 54.3843 51.5502 54.2424L50.9745 53.6668L53.667 50.9743L54.2427 51.55C54.3845 51.6919 54.4622 51.8807 54.4617 52.0816C54.4611 52.2828 54.3823 52.4722 54.2395 52.6149Z" fill="white"/>
</svg>
