<svg width="469" height="404" viewBox="0 0 469 404" fill="none" xmlns="http://www.w3.org/2000/svg">
<path d="M419.602 190.271C419.602 289.694 337.641 370.541 236.229 370.541C134.817 370.541 52.8564 289.694 52.8564 190.271C52.8564 90.8473 134.817 10 236.229 10C337.641 10 419.602 90.8473 419.602 190.271Z" fill="white" stroke="#C53A3A" stroke-width="18"/>
<path d="M407.55 234.542C409.507 237.552 413.533 238.406 416.542 236.45L465.591 204.572C468.601 202.615 469.455 198.589 467.499 195.579C465.542 192.569 461.516 191.715 458.506 193.671L414.907 222.008L386.568 178.407C384.612 175.397 380.586 174.543 377.576 176.499C374.566 178.455 373.712 182.481 375.668 185.491L407.55 234.542ZM420 198L426.359 199.349L426.5 198.682L426.5 198L420 198ZM419.359 232.349L426.359 199.349L413.642 196.651L406.641 229.651L419.359 232.349ZM426.5 198L426.5 176L413.5 176L413.5 198L426.5 198Z" fill="#2548D1"/>
<path d="M420.406 189.929C415.5 98 347.435 11.0942 236.5 11.0942C125.565 11.0943 54 97.7811 54 188" stroke="#2548D1" stroke-width="21"/>
<path d="M58.6052 154.94C40.0095 253.361 97.08 336.009 193.907 363.769C295.865 378.911 380.862 331.434 411 245" stroke="#C53A3A" stroke-width="18"/>
<path d="M62.0848 135.37C60.1817 132.328 56.1709 131.407 53.1264 133.313L3.51402 164.37C0.469564 166.276 -0.455693 170.287 1.44741 173.328C3.35051 176.37 7.3613 177.291 10.4058 175.385L54.5056 147.778L82.0726 191.837C83.9757 194.878 87.9865 195.799 91.031 193.893C94.0754 191.988 95.0007 187.977 93.0976 184.935L62.0848 135.37ZM50.56 164.881L44.2255 163.427L44.0801 164.058L44.0618 164.704L50.56 164.881ZM50.2378 137.366L44.2255 163.427L56.8945 166.336L62.9068 140.274L50.2378 137.366ZM44.0618 164.704L43.2715 192.532L56.2681 192.887L57.0583 165.059L44.0618 164.704Z" fill="#C53A3A"/>
<path d="M413.216 189.969C413.341 191.041 413.523 192.108 413.523 193.189C413.523 193.294 413.567 193.601 413.422 193.365C413.217 193.03 413.052 192.658 412.944 192.281C412.807 191.807 412.616 191.361 412.547 190.869C412.528 190.735 412.519 190.599 412.498 190.465C412.495 190.441 412.491 190.382 412.491 190.443" stroke="#2548D1" stroke-width="3" stroke-linecap="round"/>
<path d="M412.77 192.619C412.818 193.08 412.874 193.539 412.94 193.998C412.972 194.217 413.005 194.43 413.007 194.652C413.01 195.063 413.048 195.472 413.048 195.882" stroke="#2548D1" stroke-width="3" stroke-linecap="round"/>
<path d="M412.84 197.249C412.869 197.582 412.901 197.915 412.951 198.246C412.984 198.456 413.031 198.662 413.041 198.875C413.052 199.085 413.044 199.295 413.052 199.505C413.056 199.601 413.06 199.71 413.105 199.787" stroke="#2548D1" stroke-width="3" stroke-linecap="round"/>
<path d="M412.323 200.708C412.316 200.938 412.28 201.171 412.218 201.393C412.18 201.528 412.103 201.642 412.044 201.769C411.921 202.038 411.947 202.311 411.947 202.599C411.947 202.745 411.964 202.907 411.925 203.049C411.868 203.255 411.81 203.452 411.779 203.664" stroke="#2548D1" stroke-width="3" stroke-linecap="round"/>
<path d="M411.542 204.655C411.607 205.352 411.612 206.042 411.612 206.741C411.612 207.032 411.612 207.323 411.612 207.615C411.612 207.858 411.576 208.131 411.654 208.365" stroke="#2548D1" stroke-width="3" stroke-linecap="round"/>
<path d="M411.423 189.096C411.953 192.34 411.889 195.645 411.889 198.944C411.889 199.935 411.889 200.927 411.889 201.918C411.889 203.148 411.562 204.265 411.423 205.481C411.33 206.292 411.227 207.11 411.112 207.917C410.926 209.222 410.513 210.58 410.49 211.902C410.477 212.663 410.221 213.335 410.14 214.085C410.11 214.368 410.058 214.652 410.017 214.934C409.869 215.943 410.921 214.235 411.073 214.053" stroke="#2548D1" stroke-width="3" stroke-linecap="round"/>
<path d="M424.951 186.647C424.951 188.919 424.951 191.191 424.951 193.463C424.951 195.342 424.849 197.248 425.119 199.113C425.389 200.974 425.651 202.831 425.651 204.717C425.651 207.507 425.417 210.289 425.417 213.074C425.417 214.397 425.226 215.655 425.094 216.968C425.014 217.754 424.526 220.071 423.752 218.29C423.503 217.715 423.592 217.104 423.5 216.502C423.433 216.064 423.318 215.665 423.318 215.219C423.318 214.208 423.318 213.198 423.318 212.187C423.318 210.309 423.4 208.659 423.973 206.855C424.643 204.745 425.279 202.701 425.651 200.512C426.109 197.813 426.35 195.205 426.35 192.478C426.35 191.889 426.35 191.299 426.35 190.71C426.35 190.258 426.35 189.807 426.35 189.356C426.35 188.169 426.773 190.553 426.817 190.729" stroke="#2548D1" stroke-width="3" stroke-linecap="round"/>
<path d="M427.982 186.064C427.982 190.541 427.982 195.018 427.982 199.495C427.982 202.546 427.749 205.564 427.749 208.623C427.749 210.137 427.346 211.542 427.289 213.042C427.275 213.413 427.317 213.799 427.276 214.169C427.181 215.021 427.166 212.815 427.166 212.77" stroke="#2548D1" stroke-width="3" stroke-linecap="round"/>
<path d="M428.915 186.997C428.878 188.773 428.682 190.523 428.682 192.303C428.682 194.922 428.502 197.522 428.449 200.136C428.427 201.225 428.216 202.284 428.216 203.382C428.216 204.876 428.248 206.373 428.157 207.865C428.063 209.412 427.905 210.891 427.658 212.42C427.484 213.499 427.166 214.71 427.166 215.802" stroke="#2548D1" stroke-width="3" stroke-linecap="round"/>
<path d="M429.033 188.746C429.236 190.396 429.149 192.087 429.149 193.748C429.149 194.703 429.246 191.84 429.266 190.884C429.279 190.247 429.383 189.628 429.499 189.019C429.614 188.413 429.849 187.902 429.849 188.857C429.849 189.8 429.849 190.744 429.849 191.688C429.849 195.576 429.616 199.438 429.616 203.324C429.616 205.038 429.733 206.825 429.441 208.52C429.155 210.175 428.916 211.784 428.916 213.47" stroke="#2548D1" stroke-width="2" stroke-linecap="round"/>
<path d="M410.05 190.391C410.059 190.573 410.058 190.758 410.105 190.935C410.131 191.03 410.153 191.124 410.171 191.221C410.181 191.278 410.192 191.334 410.199 191.392C410.203 191.425 410.207 191.46 410.214 191.493C410.226 191.547 410.243 191.531 410.285 191.544" stroke="#2548D1" stroke-width="0.2" stroke-linecap="round"/>
<path d="M410.021 190.391C410.021 190.452 410.023 190.51 410.029 190.571C410.036 190.644 410.064 190.715 410.074 190.787C410.093 190.931 410.11 191.075 410.132 191.219C410.145 191.302 410.159 191.385 410.17 191.469C410.18 191.54 410.175 191.62 410.194 191.689C410.203 191.722 410.2 191.755 410.204 191.789C410.213 191.861 410.229 191.933 410.239 192.006C410.243 192.039 410.248 192.118 410.284 192.124" stroke="#2548D1" stroke-width="0.2" stroke-linecap="round"/>
<path d="M410.213 192.159C410.226 192.694 410.342 193.245 410.398 193.776C410.433 194.107 410.512 194.42 410.538 194.758C410.578 195.283 410.672 195.785 410.768 196.302C410.854 196.769 410.884 197.252 411.068 197.692" stroke="#2548D1" stroke-width="0.2" stroke-linecap="round"/>
<path d="M410.363 200.348V201.008" stroke="#2548D1" stroke-width="0.2" stroke-linecap="round"/>
<path d="M410.352 200.914V202.145" stroke="#2548D1" stroke-width="0.2" stroke-linecap="round"/>
<path d="M410.316 202.199C410.316 202.456 410.316 202.712 410.316 202.969C410.316 203.083 410.316 203.197 410.316 203.311C410.316 203.367 410.316 203.423 410.316 203.48C410.316 203.487 410.316 203.52 410.317 203.531C410.317 203.554 410.32 203.525 410.32 203.523" stroke="#2548D1" stroke-width="0.2" stroke-linecap="round"/>
</svg>
