<svg width="16" height="16" viewBox="0 0 16 16" fill="none" xmlns="http://www.w3.org/2000/svg">
<circle cx="8" cy="8" r="8" fill="#2549D3"/>
<path d="M11.339 4.44064V4V3.95H11.289H4H3.95V4V11.4647V11.5147H4H4.93365V12V12.05H4.98365H12H12.05V12V4.49064V4.44064H12H11.339ZM8.54124 9.66436V11.2203H4.28838V4.24443H11.0006V9.56112C11.0006 9.57887 11.0002 9.5966 10.9994 9.61436H8.59125H8.54124V9.66436ZM11.339 9.56107V4.73512H11.7114V11.7555H5.27203V11.5147H8.95626H8.9563C9.58509 11.5141 10.1895 11.3101 10.6366 10.9453C11.084 10.5802 11.3383 10.0827 11.339 9.56114V9.56107ZM8.87963 11.2202V9.90884H10.9545C10.8594 10.2661 10.621 10.5903 10.2727 10.8286C9.90479 11.0805 9.43875 11.2195 8.95608 11.2201L8.87963 11.2202Z" fill="white" stroke="white" stroke-width="0.1"/>
<path d="M8.68527 6.33655H5.53809V6.83655H8.68527V6.33655Z" fill="white"/>
<path d="M8.68527 7.47314H5.53809V7.97314H8.68527V7.47314Z" fill="white"/>
<path d="M8.68527 8.5658H5.53809V9.0658H8.68527V8.5658Z" fill="white"/>
</svg>
