<svg width="16" height="16" viewBox="0 0 16 16" fill="none" xmlns="http://www.w3.org/2000/svg">
<circle cx="8" cy="8" r="8" fill="#2549D3"/>
<path fill-rule="evenodd" clip-rule="evenodd" d="M3.72523 8C3.72523 8.84546 3.97592 9.67194 4.44561 10.3749C4.91529 11.0779 5.58288 11.6259 6.36396 11.9495C7.14504 12.2731 8.00454 12.3578 8.83377 12.1929C9.66301 12.0281 10.4247 11.6211 11.0227 11.0233C11.6206 10.4256 12.0278 9.66396 12.1929 8.83477C12.358 8.00559 12.2735 7.14607 11.9502 6.36489C11.6268 5.58372 11.079 4.91597 10.3762 4.44607C9.67334 3.97618 8.84693 3.72525 8.00147 3.725C7.90533 3.725 7.81313 3.68681 7.74515 3.61883C7.67716 3.55084 7.63897 3.45864 7.63897 3.3625C7.63897 3.26636 7.67716 3.17416 7.74515 3.10617C7.81313 3.03819 7.90533 3 8.00147 3C9.12075 3.00033 10.2075 3.3762 11.0879 4.06743C11.9682 4.75866 12.5911 5.72528 12.8569 6.81253C13.1228 7.89978 13.0161 9.04477 12.554 10.0642C12.0919 11.0836 11.3012 11.9186 10.3083 12.4353C9.31544 12.952 8.17792 13.1206 7.07784 12.9142C5.97777 12.7078 4.97878 12.1382 4.24079 11.2967C3.50281 10.4552 3.06852 9.3904 3.00745 8.27279C2.94638 7.15519 3.26207 6.04941 3.90397 5.1325L3.4896 4.77187C3.44011 4.72884 3.40321 4.67319 3.38285 4.61084C3.36249 4.54849 3.35943 4.48179 3.37399 4.41784C3.38855 4.35389 3.42019 4.29509 3.46553 4.2477C3.51088 4.20031 3.56823 4.16611 3.63148 4.14875L5.20647 3.7175C5.264 3.7018 5.32452 3.70054 5.38265 3.71383C5.44079 3.72711 5.49475 3.75453 5.53975 3.79366C5.58475 3.83279 5.6194 3.88242 5.64064 3.93814C5.66187 3.99387 5.66903 4.05397 5.66147 4.11312L5.45397 5.73312C5.44565 5.79823 5.4198 5.85985 5.37919 5.91142C5.33858 5.96298 5.28473 6.00255 5.22339 6.02591C5.16205 6.04926 5.09552 6.05553 5.0309 6.04403C4.96628 6.03253 4.90599 6.0037 4.85647 5.96062L4.4546 5.61062C3.97779 6.31616 3.72351 7.14846 3.7246 8H3.72523ZM7.15022 7.95062V6.29812H8.13147C8.6821 6.29812 9.01647 6.61 9.01647 7.12312C9.01647 7.64812 8.70147 7.95062 8.15022 7.95062H7.15022V7.95062ZM7.15022 10.2944V8.52687H8.13147L9.06772 10.2944H9.88897L8.86022 8.41562C9.42085 8.22812 9.7521 7.72437 9.7521 7.10312C9.7521 6.24687 9.16272 5.69937 8.2171 5.69937H6.4371V10.2944H7.15022Z" fill="white"/>
<circle cx="8.5" cy="8.5" r="3.5" fill="#2549D3"/>
</svg>
