<svg width="36" height="36" viewBox="0 0 36 36" fill="none" xmlns="http://www.w3.org/2000/svg">
<rect x="0.53418" y="0.14502" width="35.3011" height="35.3011" rx="17.6506" fill="#DEE4F8"/>
<path d="M17.3494 21.4632V21.3865C17.358 20.5726 17.4432 19.9248 17.6051 19.4433C17.767 18.9618 17.9972 18.5719 18.2955 18.2736C18.5938 17.9753 18.9517 17.7004 19.3693 17.449C19.6207 17.2956 19.8466 17.1145 20.0469 16.9057C20.2472 16.6926 20.4048 16.4476 20.5199 16.1706C20.6392 15.8936 20.6989 15.5868 20.6989 15.2501C20.6989 14.8325 20.6009 14.4703 20.4048 14.1635C20.2088 13.8567 19.9467 13.6202 19.6186 13.454C19.2905 13.2878 18.9261 13.2047 18.5256 13.2047C18.1761 13.2047 17.8395 13.2771 17.5156 13.422C17.1918 13.5669 16.9212 13.7949 16.7038 14.106C16.4865 14.417 16.3608 14.824 16.3267 15.3268H14.7159C14.75 14.6024 14.9375 13.9824 15.2784 13.4668C15.6236 12.9511 16.0774 12.557 16.6399 12.2842C17.2067 12.0115 17.8352 11.8751 18.5256 11.8751C19.2756 11.8751 19.9276 12.0243 20.4815 12.3226C21.0398 12.6209 21.4702 13.03 21.7727 13.5498C22.0795 14.0697 22.233 14.6621 22.233 15.3268C22.233 15.7956 22.1605 16.2196 22.0156 16.5989C21.875 16.9781 21.6705 17.3169 21.402 17.6152C21.1378 17.9135 20.8182 18.1777 20.4432 18.4078C20.0682 18.6422 19.7678 18.8893 19.5419 19.1493C19.3161 19.405 19.152 19.7097 19.0497 20.0633C18.9474 20.417 18.892 20.8581 18.8835 21.3865V21.4632H17.3494ZM18.1676 25.2473C17.8523 25.2473 17.5817 25.1344 17.3558 24.9085C17.13 24.6827 17.017 24.4121 17.017 24.0967C17.017 23.7814 17.13 23.5108 17.3558 23.2849C17.5817 23.0591 17.8523 22.9462 18.1676 22.9462C18.483 22.9462 18.7536 23.0591 18.9794 23.2849C19.2053 23.5108 19.3182 23.7814 19.3182 24.0967C19.3182 24.3055 19.2649 24.4973 19.1584 24.672C19.0561 24.8467 18.9176 24.9873 18.7429 25.0939C18.5724 25.1962 18.3807 25.2473 18.1676 25.2473Z" fill="black"/>
</svg>
