<svg width="94" height="16" viewBox="0 0 94 16" fill="none" xmlns="http://www.w3.org/2000/svg">
<path d="M15.6667 6.20029C15.6667 5.95159 15.491 5.79702 15.1393 5.73646L10.4131 5.00062L8.29473 0.413299C8.17555 0.137719 8.02165 0 7.83338 0C7.64515 0 7.49134 0.137719 7.37206 0.413299L5.2536 5.00062L0.527174 5.73646C0.175769 5.79702 0 5.95159 0 6.20029C0 6.34151 0.0784858 6.50282 0.235425 6.68429L3.66255 10.2533L2.85286 15.2941C2.8403 15.3882 2.83406 15.4557 2.83406 15.4958C2.83406 15.637 2.86698 15.7562 2.93286 15.8537C2.99872 15.9514 3.09752 16 3.2294 16C3.34244 16 3.46792 15.9598 3.606 15.8791L7.83328 13.4995L12.0609 15.8791C12.1929 15.9598 12.3184 16 12.4373 16C12.5633 16 12.6588 15.9514 12.7247 15.8537C12.7904 15.7563 12.8233 15.637 12.8233 15.4958C12.8233 15.4085 12.8201 15.3413 12.8138 15.2941L12.0041 10.2533L15.4217 6.68429C15.5852 6.50953 15.6667 6.34815 15.6667 6.20029Z" fill="#FFE03B"/>
<path d="M35.2502 6.20029C35.2502 5.95159 35.0745 5.79702 34.7228 5.73646L29.9966 5.00062L27.8782 0.413299C27.7591 0.137719 27.6051 0 27.4169 0C27.2286 0 27.0748 0.137719 26.9556 0.413299L24.8371 5.00062L20.1107 5.73646C19.7593 5.79702 19.5835 5.95159 19.5835 6.20029C19.5835 6.34151 19.662 6.50282 19.8189 6.68429L23.246 10.2533L22.4364 15.2941C22.4238 15.3882 22.4176 15.4557 22.4176 15.4958C22.4176 15.637 22.4505 15.7562 22.5164 15.8537C22.5822 15.9514 22.681 16 22.8129 16C22.9259 16 23.0514 15.9598 23.1895 15.8791L27.4168 13.4995L31.6444 15.8791C31.7764 15.9598 31.9019 16 32.0208 16C32.1468 16 32.2423 15.9514 32.3082 15.8537C32.3739 15.7563 32.4068 15.637 32.4068 15.4958C32.4068 15.4085 32.4036 15.3413 32.3973 15.2941L31.5876 10.2533L35.0052 6.68429C35.1687 6.50953 35.2502 6.34815 35.2502 6.20029Z" fill="#FFE03B"/>
<path d="M54.8332 6.20029C54.8332 5.95159 54.6575 5.79702 54.3058 5.73646L49.5796 5.00062L47.4612 0.413299C47.3421 0.137719 47.1882 0 46.9999 0C46.8117 0 46.6578 0.137719 46.5386 0.413299L44.4201 5.00062L39.6937 5.73646C39.3423 5.79702 39.1665 5.95159 39.1665 6.20029C39.1665 6.34151 39.245 6.50282 39.4019 6.68429L42.8291 10.2533L42.0194 15.2941C42.0068 15.3882 42.0006 15.4557 42.0006 15.4958C42.0006 15.637 42.0335 15.7562 42.0994 15.8537C42.1652 15.9514 42.264 16 42.3959 16C42.5089 16 42.6344 15.9598 42.7725 15.8791L46.9998 13.4995L51.2274 15.8791C51.3594 15.9598 51.4849 16 51.6038 16C51.7298 16 51.8253 15.9514 51.8912 15.8537C51.9569 15.7563 51.9898 15.637 51.9898 15.4958C51.9898 15.4085 51.9866 15.3413 51.9803 15.2941L51.1706 10.2533L54.5882 6.68429C54.7517 6.50953 54.8332 6.34815 54.8332 6.20029Z" fill="#FFE03B"/>
<path d="M74.4167 6.20029C74.4167 5.95159 74.241 5.79702 73.8893 5.73646L69.1631 5.00062L67.0447 0.413299C66.9256 0.137719 66.7716 0 66.5834 0C66.3951 0 66.2413 0.137719 66.1221 0.413299L64.0036 5.00062L59.2772 5.73646C58.9258 5.79702 58.75 5.95159 58.75 6.20029C58.75 6.34151 58.8285 6.50282 58.9854 6.68429L62.4126 10.2533L61.6029 15.2941C61.5903 15.3882 61.5841 15.4557 61.5841 15.4958C61.5841 15.637 61.617 15.7562 61.6829 15.8537C61.7487 15.9514 61.8475 16 61.9794 16C62.0924 16 62.2179 15.9598 62.356 15.8791L66.5833 13.4995L70.8109 15.8791C70.9429 15.9598 71.0684 16 71.1873 16C71.3133 16 71.4088 15.9514 71.4747 15.8537C71.5404 15.7563 71.5733 15.637 71.5733 15.4958C71.5733 15.4085 71.5701 15.3413 71.5638 15.2941L70.7541 10.2533L74.1717 6.68429C74.3352 6.50953 74.4167 6.34815 74.4167 6.20029Z" fill="#FFE03B"/>
<path d="M94.0002 6.20029C94.0002 5.95159 93.8245 5.79702 93.4728 5.73646L88.7466 5.00062L86.6282 0.413299C86.5091 0.137719 86.3551 0 86.1669 0C85.9786 0 85.8248 0.137719 85.7056 0.413299L83.5871 5.00062L78.8607 5.73646C78.5093 5.79702 78.3335 5.95159 78.3335 6.20029C78.3335 6.34151 78.412 6.50282 78.5689 6.68429L81.996 10.2533L81.1864 15.2941C81.1738 15.3882 81.1676 15.4557 81.1676 15.4958C81.1676 15.637 81.2005 15.7562 81.2664 15.8537C81.3322 15.9514 81.431 16 81.5629 16C81.6759 16 81.8014 15.9598 81.9395 15.8791L86.1668 13.4995L90.3944 15.8791C90.5264 15.9598 90.6519 16 90.7708 16C90.8968 16 90.9923 15.9514 91.0582 15.8537C91.1239 15.7563 91.1568 15.637 91.1568 15.4958C91.1568 15.4085 91.1536 15.3413 91.1473 15.2941L90.3376 10.2533L93.7552 6.68429C93.9187 6.50953 94.0002 6.34815 94.0002 6.20029Z" fill="#FFE03B"/>
</svg>
