<svg width="187" height="42" viewBox="0 0 187 42" fill="none" xmlns="http://www.w3.org/2000/svg">
<path d="M1.82 31.2446V13.0446H6.058L13.598 25.4206H11.362L18.694 13.0446H22.932L22.984 31.2446H18.252L18.2 20.2466H19.006L13.52 29.4506H11.232L5.59 20.2466H6.578V31.2446H1.82ZM35.8046 31.6086C34.3486 31.6086 33.0053 31.3746 31.7746 30.9066C30.544 30.4386 29.4693 29.78 28.5506 28.9306C27.6493 28.064 26.9473 27.0586 26.4446 25.9146C25.942 24.7706 25.6906 23.514 25.6906 22.1446C25.6906 20.7753 25.942 19.5186 26.4446 18.3746C26.9473 17.2306 27.6493 16.234 28.5506 15.3846C29.4693 14.518 30.544 13.8506 31.7746 13.3826C33.0053 12.9146 34.3486 12.6806 35.8046 12.6806C37.278 12.6806 38.6213 12.9146 39.8346 13.3826C41.0653 13.8506 42.1313 14.518 43.0326 15.3846C43.934 16.234 44.636 17.2306 45.1386 18.3746C45.6586 19.5186 45.9186 20.7753 45.9186 22.1446C45.9186 23.514 45.6586 24.7793 45.1386 25.9406C44.636 27.0846 43.934 28.0813 43.0326 28.9306C42.1313 29.78 41.0653 30.4386 39.8346 30.9066C38.6213 31.3746 37.278 31.6086 35.8046 31.6086ZM35.8046 27.3446C36.498 27.3446 37.1393 27.2233 37.7286 26.9806C38.3353 26.738 38.8553 26.3913 39.2886 25.9406C39.7393 25.4726 40.086 24.918 40.3286 24.2766C40.5886 23.6353 40.7186 22.9246 40.7186 22.1446C40.7186 21.3473 40.5886 20.6366 40.3286 20.0126C40.086 19.3713 39.7393 18.8253 39.2886 18.3746C38.8553 17.9066 38.3353 17.5513 37.7286 17.3086C37.1393 17.066 36.498 16.9446 35.8046 16.9446C35.1113 16.9446 34.4613 17.066 33.8546 17.3086C33.2653 17.5513 32.7453 17.9066 32.2946 18.3746C31.8613 18.8253 31.5146 19.3713 31.2546 20.0126C31.012 20.6366 30.8906 21.3473 30.8906 22.1446C30.8906 22.9246 31.012 23.6353 31.2546 24.2766C31.5146 24.918 31.8613 25.4726 32.2946 25.9406C32.7453 26.3913 33.2653 26.738 33.8546 26.9806C34.4613 27.2233 35.1113 27.3446 35.8046 27.3446Z" fill="#2549D3"/>
<path d="M82.0142 24.0462C81.3101 27.4848 79.5599 30.6214 77.0034 33.0263C74.4469 35.4312 71.2093 36.9867 67.7342 37.4796V34.0371C70.3008 33.5794 72.6821 32.3944 74.5951 30.6231C76.5081 28.8517 77.8724 26.5685 78.5258 24.0445L82.0142 24.0462ZM52.1826 24.0462C52.829 26.541 54.17 28.8011 56.0499 30.564C57.9298 32.3268 60.2714 33.52 62.8025 34.0048V37.4558C59.3616 36.9315 56.1641 35.3647 53.6414 32.9666C51.1187 30.5685 49.392 27.4545 48.6942 24.0445H52.1826V24.0462ZM75.5542 18.9445V22.3445H70.4542C69.5964 22.3443 68.7702 22.6682 68.1413 23.2515C67.5123 23.8347 67.127 24.6342 67.0627 25.4895L67.0542 25.7445V30.8445H63.6542V25.7445C63.6545 24.8867 63.3305 24.0606 62.7473 23.4316C62.164 22.8026 61.3646 22.4174 60.5092 22.353L60.2542 22.3445H55.1542V18.9445H75.5542ZM65.3542 3.64453C74.1687 3.64453 81.4175 10.3544 82.2692 18.9445H78.8488C78.4339 15.6583 76.8342 12.6363 74.3496 10.4457C71.8651 8.25506 68.6666 7.04636 65.3542 7.04636C62.0418 7.04636 58.8433 8.25506 56.3588 10.4457C53.8742 12.6363 52.2745 15.6583 51.8596 18.9445H48.4375C49.2909 10.3544 56.5397 3.64453 65.3542 3.64453Z" fill="#2549D3"/>
<path d="M96.9531 31.6086C95.4971 31.6086 94.1537 31.3746 92.9231 30.9066C91.6924 30.4386 90.6177 29.78 89.6991 28.9306C88.7977 28.064 88.0957 27.0586 87.5931 25.9146C87.0904 24.7706 86.8391 23.514 86.8391 22.1446C86.8391 20.7753 87.0904 19.5186 87.5931 18.3746C88.0957 17.2306 88.7977 16.234 89.6991 15.3846C90.6177 14.518 91.6924 13.8506 92.9231 13.3826C94.1537 12.9146 95.4971 12.6806 96.9531 12.6806C98.4264 12.6806 99.7697 12.9146 100.983 13.3826C102.214 13.8506 103.28 14.518 104.181 15.3846C105.082 16.234 105.784 17.2306 106.287 18.3746C106.807 19.5186 107.067 20.7753 107.067 22.1446C107.067 23.514 106.807 24.7793 106.287 25.9406C105.784 27.0846 105.082 28.0813 104.181 28.9306C103.28 29.78 102.214 30.4386 100.983 30.9066C99.7697 31.3746 98.4264 31.6086 96.9531 31.6086ZM96.9531 27.3446C97.6464 27.3446 98.2877 27.2233 98.8771 26.9806C99.4837 26.738 100.004 26.3913 100.437 25.9406C100.888 25.4726 101.234 24.918 101.477 24.2766C101.737 23.6353 101.867 22.9246 101.867 22.1446C101.867 21.3473 101.737 20.6366 101.477 20.0126C101.234 19.3713 100.888 18.8253 100.437 18.3746C100.004 17.9066 99.4837 17.5513 98.8771 17.3086C98.2877 17.066 97.6464 16.9446 96.9531 16.9446C96.2597 16.9446 95.6097 17.066 95.0031 17.3086C94.4137 17.5513 93.8937 17.9066 93.4431 18.3746C93.0097 18.8253 92.6631 19.3713 92.4031 20.0126C92.1604 20.6366 92.0391 21.3473 92.0391 22.1446C92.0391 22.9246 92.1604 23.6353 92.4031 24.2766C92.6631 24.918 93.0097 25.4726 93.4431 25.9406C93.8937 26.3913 94.4137 26.738 95.0031 26.9806C95.6097 27.2233 96.2597 27.3446 96.9531 27.3446ZM109.763 31.2446V13.0446H118.083C119.747 13.0446 121.177 13.3133 122.373 13.8506C123.587 14.388 124.523 15.168 125.181 16.1906C125.84 17.196 126.169 18.392 126.169 19.7786C126.169 21.148 125.84 22.3353 125.181 23.3406C124.523 24.3286 123.587 25.0913 122.373 25.6286C121.177 26.1486 119.747 26.4086 118.083 26.4086H112.623L114.911 24.2506V31.2446H109.763ZM121.021 31.2446L116.497 24.6146H121.983L126.533 31.2446H121.021ZM114.911 24.7966L112.623 22.4306H117.771C118.846 22.4306 119.643 22.1966 120.163 21.7286C120.701 21.2606 120.969 20.6106 120.969 19.7786C120.969 18.9293 120.701 18.2706 120.163 17.8026C119.643 17.3346 118.846 17.1006 117.771 17.1006H112.623L114.911 14.7346V24.7966ZM138.083 31.6086C136.645 31.6086 135.31 31.3833 134.079 30.9326C132.866 30.4646 131.809 29.806 130.907 28.9566C130.023 28.1073 129.33 27.1106 128.827 25.9666C128.325 24.8053 128.073 23.5313 128.073 22.1446C128.073 20.758 128.325 19.4926 128.827 18.3486C129.33 17.1873 130.023 16.182 130.907 15.3326C131.809 14.4833 132.866 13.8333 134.079 13.3826C135.31 12.9146 136.645 12.6806 138.083 12.6806C139.765 12.6806 141.264 12.9753 142.581 13.5646C143.916 14.154 145.025 15.0033 145.909 16.1126L142.633 19.0766C142.044 18.3833 141.394 17.8546 140.683 17.4906C139.99 17.1266 139.21 16.9446 138.343 16.9446C137.598 16.9446 136.913 17.066 136.289 17.3086C135.665 17.5513 135.128 17.9066 134.677 18.3746C134.244 18.8253 133.897 19.3713 133.637 20.0126C133.395 20.654 133.273 21.3646 133.273 22.1446C133.273 22.9246 133.395 23.6353 133.637 24.2766C133.897 24.918 134.244 25.4726 134.677 25.9406C135.128 26.3913 135.665 26.738 136.289 26.9806C136.913 27.2233 137.598 27.3446 138.343 27.3446C139.21 27.3446 139.99 27.1626 140.683 26.7986C141.394 26.4346 142.044 25.906 142.633 25.2126L145.909 28.1766C145.025 29.2686 143.916 30.118 142.581 30.7246C141.264 31.314 139.765 31.6086 138.083 31.6086ZM145.716 31.2446L153.75 13.0446H158.82L166.88 31.2446H161.524L155.232 15.5666H157.26L150.968 31.2446H145.716ZM150.11 27.7086L151.436 23.9126H160.328L161.654 27.7086H150.11ZM168.34 31.2446V13.0446H176.66C178.324 13.0446 179.754 13.3133 180.95 13.8506C182.163 14.388 183.099 15.168 183.758 16.1906C184.416 17.196 184.746 18.392 184.746 19.7786C184.746 21.148 184.416 22.3353 183.758 23.3406C183.099 24.3286 182.163 25.0913 180.95 25.6286C179.754 26.1486 178.324 26.4086 176.66 26.4086H171.2L173.488 24.2506V31.2446H168.34ZM179.598 31.2446L175.074 24.6146H180.56L185.11 31.2446H179.598ZM173.488 24.7966L171.2 22.4306H176.348C177.422 22.4306 178.22 22.1966 178.74 21.7286C179.277 21.2606 179.546 20.6106 179.546 19.7786C179.546 18.9293 179.277 18.2706 178.74 17.8026C178.22 17.3346 177.422 17.1006 176.348 17.1006H171.2L173.488 14.7346V24.7966Z" fill="#2549D3"/>
</svg>
